  0
SECTION
  2
HEADER
  9
$ACADVER
  1
AC1014
  9
$HANDSEED
  5
FFFF
  9
$MEASUREMENT
 70
     1
  0
ENDSEC
  0
SECTION
  2
TABLES
  0
TABLE
  2
VPORT
  5
8
330
0
100
AcDbSymbolTable
 70
     4
  0
VPORT
  5
2E
330
8
100
AcDbSymbolTableRecord
100
AcDbViewportTableRecord
  2
*ACTIVE
 70
     0
 10
0.0
 20
0.0
 11
1.0
 21
1.0
 12
210.0
 22
148.5
 13
0.0
 23
0.0
 14
10.0
 24
10.0
 15
10.0
 25
10.0
 16
0.0
 26
0.0
 36
1.0
 17
0.0
 27
0.0
 37
0.0
 40
341.0
 41
1.24
 42
50.0
 43
0.0
 44
0.0
 50
0.0
 51
0.0
 71
     0
 72
   100
 73
     1
 74
     3
 75
     0
 76
     0
 77
     0
 78
     0
  0
ENDTAB
  0
TABLE
  2
LTYPE
  5
5
330
0
100
AcDbSymbolTable
 70
     1
  0
LTYPE
  5
14
330
5
100
AcDbSymbolTableRecord
100
AcDbLinetypeTableRecord
  2
BYBLOCK
 70
     0
  3

 72
    65
 73
     0
 40
0.0
  0
LTYPE
  5
15
330
5
100
AcDbSymbolTableRecord
100
AcDbLinetypeTableRecord
  2
BYLAYER
 70
     0
  3

 72
    65
 73
     0
 40
0.0
  0
LTYPE
  5
16
330
5
100
AcDbSymbolTableRecord
100
AcDbLinetypeTableRecord
  2
CONTINUOUS
 70
     0
  3
Solid line
 72
    65
 73
     0
 40
0.0
  0
ENDTAB
  0
TABLE
  2
LAYER
  5
2
100
AcDbSymbolTable
 70
1
  0
LAYER
  5
50
100
AcDbSymbolTableRecord
100
AcDbLayerTableRecord
  2
0
 70
0
  6
CONTINUOUS
  0
ENDTAB
  0
TABLE
  2
STYLE
  5
3
330
0
100
AcDbSymbolTable
 70
     1
  0
STYLE
  5
11
330
3
100
AcDbSymbolTableRecord
100
AcDbTextStyleTableRecord
  2
STANDARD
 70
     0
 40
0.0
 41
1.0
 50
0.0
 71
     0
 42
2.5
  3
txt
  4

  0
ENDTAB
  0
TABLE
  2
VIEW
  5
6
330
0
100
AcDbSymbolTable
 70
     0
  0
ENDTAB
  0
TABLE
  2
UCS
  5
7
330
0
100
AcDbSymbolTable
 70
     0
  0
ENDTAB
  0
TABLE
  2
APPID
  5
9
330
0
100
AcDbSymbolTable
 70
     2
  0
APPID
  5
12
330
9
100
AcDbSymbolTableRecord
100
AcDbRegAppTableRecord
  2
ACAD
 70
     0
  0
ENDTAB
  0
TABLE
  2
DIMSTYLE
  5
A
330
0
100
AcDbSymbolTable
 70
     1
  0
DIMSTYLE
105
27
330
A
100
AcDbSymbolTableRecord
100
AcDbDimStyleTableRecord
  2
ISO-25
 70
     0
  3

  4

  5

  6

  7

 40
1.0
 41
2.5
 42
0.625
 43
3.75
 44
1.25
 45
0.0
 46
0.0
 47
0.0
 48
0.0
140
2.5
141
2.5
142
0.0
143
0.03937007874016
144
1.0
145
0.0
146
1.0
147
0.625
 71
     0
 72
     0
 73
     0
 74
     0
 75
     0
 76
     0
 77
     1
 78
     8
170
     0
171
     3
172
     1
173
     0
174
     0
175
     0
176
     0
177
     0
178
     0
270
     2
271
     2
272
     2
273
     2
274
     3
340
11
275
     0
280
     0
281
     0
282
     0
283
     0
284
     8
285
     0
286
     0
287
     3
288
     0
  0
ENDTAB
  0
TABLE
  2
BLOCK_RECORD
  5
1
330
0
100
AcDbSymbolTable
 70
     1
  0
BLOCK_RECORD
  5
1F
330
1
100
AcDbSymbolTableRecord
100
AcDbBlockTableRecord
  2
*MODEL_SPACE
  0
BLOCK_RECORD
  5
1B
330
1
100
AcDbSymbolTableRecord
100
AcDbBlockTableRecord
  2
*PAPER_SPACE
  0
ENDTAB
  0
ENDSEC
  0
SECTION
  2
BLOCKS
  0
BLOCK
  5
20
330
1F
100
AcDbEntity
  8
0
100
AcDbBlockBegin
  2
*MODEL_SPACE
 70
     0
 10
0.0
 20
0.0
 30
0.0
  3
*MODEL_SPACE
  1

  0
ENDBLK
  5
21
330
1F
100
AcDbEntity
  8
0
100
AcDbBlockEnd
  0
BLOCK
  5
1C
330
1B
100
AcDbEntity
 67
     1
  8
0
100
AcDbBlockBegin
  2
*PAPER_SPACE
  1

  0
ENDBLK
  5
1D
330
1B
100
AcDbEntity
 67
     1
  8
0
100
AcDbBlockEnd
  0
ENDSEC
  0
SECTION
  2
ENTITIES
  0
LWPOLYLINE
  5
100
100
AcDbEntity
  8
0
 62
7
100
AcDbPolyline
 90
26
 70
0
 10
63.838901
 20
78.057609
 30
0.0
 10
65.888963
 20
77.762969
 30
0.0
 10
65.888963
 20
13.219876
 30
0.0
 10
65.472727
 20
10.734243
 30
0.0
 10
64.405444
 20
8.305999
 30
0.0
 10
62.806852
 20
6.025762
 30
0.0
 10
60.796686
 20
3.984154
 30
0.0
 10
58.494686
 20
2.271792
 30
0.0
 10
56.020587
 20
0.979298
 30
0.0
 10
53.494127
 20
0.197292
 30
0.0
 10
51.035043
 20
0.016391
 30
0.0
 10
48.206048
 20
0.447345
 30
0.0
 10
45.671692
 20
1.699565
 30
0.0
 10
44.184328
 20
3.268174
 30
0.0
 10
43.291853
 20
5.063795
 30
0.0
 10
42.794154
 20
9.096045
 30
0.0
 10
43.223408
 20
11.499010
 30
0.0
 10
44.278520
 20
13.705457
 30
0.0
 10
45.850548
 20
15.684388
 30
0.0
 10
47.830551
 20
17.404808
 30
0.0
 10
52.578710
 20
19.946131
 30
0.0
 10
57.651461
 20
21.081458
 30
0.0
 10
60.575706
 20
20.942040
 30
0.0
 10
63.837772
 20
19.671476
 30
0.0
 10
63.838901
 20
78.057609
 30
0.0
 10
63.838901
 20
78.057609
 30
0.0
  0
LWPOLYLINE
  5
101
100
AcDbEntity
  8
0
 62
7
100
AcDbPolyline
 90
20
 70
0
 10
45.259648
 20
5.284916
 30
0.0
 10
45.686791
 20
4.123713
 30
0.0
 10
47.085061
 20
3.503529
 30
0.0
 10
49.062962
 20
3.576960
 30
0.0
 10
51.516373
 20
4.328041
 30
0.0
 10
54.200712
 20
5.686818
 30
0.0
 10
56.871399
 20
7.583334
 30
0.0
 10
59.413798
 20
9.843687
 30
0.0
 10
61.555723
 20
12.307451
 30
0.0
 10
62.994069
 20
14.696286
 30
0.0
 10
63.425728
 20
16.731849
 30
0.0
 10
62.889788
 20
17.699871
 30
0.0
 10
61.837381
 20
18.065067
 30
0.0
 10
58.972614
 20
17.606544
 30
0.0
 10
55.686630
 20
16.062277
 30
0.0
 10
50.216599
 20
12.392400
 30
0.0
 10
46.590466
 20
8.814951
 30
0.0
 10
45.560620
 20
7.019348
 30
0.0
 10
45.259648
 20
5.284916
 30
0.0
 10
45.259648
 20
5.284916
 30
0.0
  0
LWPOLYLINE
  5
102
100
AcDbEntity
  8
0
 62
7
100
AcDbPolyline
 90
30
 70
0
 10
16.565685
 20
21.407258
 30
0.0
 10
19.639314
 20
21.162263
 30
0.0
 10
22.645796
 20
20.448873
 30
0.0
 10
25.505656
 20
19.282344
 30
0.0
 10
28.139421
 20
17.677934
 30
0.0
 10
29.833390
 20
16.149407
 30
0.0
 10
31.148144
 20
14.279126
 30
0.0
 10
31.948583
 20
12.158856
 30
0.0
 10
32.099608
 20
9.880366
 30
0.0
 10
31.504596
 20
7.546877
 30
0.0
 10
30.225838
 20
5.529327
 30
0.0
 10
28.473773
 20
3.851245
 30
0.0
 10
26.458844
 20
2.536162
 30
0.0
 10
23.016208
 20
1.031876
 30
0.0
 10
19.356772
 20
0.179280
 30
0.0
 10
15.609771
 20
0.036668
 30
0.0
 10
11.904439
 20
0.662336
 30
0.0
 10
9.151555
 20
1.592139
 30
0.0
 10
6.541495
 20
2.913846
 30
0.0
 10
4.250347
 20
4.687066
 30
0.0
 10
2.454199
 20
6.971408
 30
0.0
 10
1.631107
 20
9.045255
 30
0.0
 10
1.430849
 20
11.264648
 30
0.0
 10
1.867498
 20
13.442526
 30
0.0
 10
2.955127
 20
15.391827
 30
0.0
 10
5.005029
 20
17.453817
 30
0.0
 10
7.438653
 20
19.037040
 30
0.0
 10
12.914319
 20
21.006895
 30
0.0
 10
16.565685
 20
21.407258
 30
0.0
 10
16.565685
 20
21.407258
 30
0.0
  0
LWPOLYLINE
  5
103
100
AcDbEntity
  8
0
 62
7
100
AcDbPolyline
 90
21
 70
0
 10
18.591843
 20
1.839098
 30
0.0
 10
21.069317
 20
2.790194
 30
0.0
 10
21.992214
 20
3.727923
 30
0.0
 10
22.531045
 20
4.957247
 30
0.0
 10
22.819268
 20
9.393403
 30
0.0
 10
21.890267
 20
13.753671
 30
0.0
 10
19.900009
 20
17.377768
 30
0.0
 10
18.398876
 20
18.773261
 30
0.0
 10
16.519145
 20
19.613149
 30
0.0
 10
14.110389
 20
19.440334
 30
0.0
 10
11.991948
 20
18.276880
 30
0.0
 10
11.136794
 20
16.908658
 30
0.0
 10
10.752781
 20
15.351857
 30
0.0
 10
10.731876
 20
12.100504
 30
0.0
 10
11.145444
 20
9.466733
 30
0.0
 10
11.974553
 20
6.910098
 30
0.0
 10
13.289004
 20
4.598320
 30
0.0
 10
15.158602
 20
2.699123
 30
0.0
 10
16.790800
 20
1.912753
 30
0.0
 10
18.591843
 20
1.839098
 30
0.0
 10
18.591843
 20
1.839098
 30
0.0
  0
LWPOLYLINE
  5
104
100
AcDbEntity
  8
0
 62
7
100
AcDbPolyline
 90
27
 70
0
 10
99.546190
 20
13.364978
 30
0.0
 10
99.164008
 20
10.808185
 30
0.0
 10
98.099942
 20
8.324207
 30
0.0
 10
96.477711
 20
5.998978
 30
0.0
 10
94.421034
 20
3.918435
 30
0.0
 10
92.094130
 20
2.198044
 30
0.0
 10
89.548044
 20
0.932524
 30
0.0
 10
86.914541
 20
0.184318
 30
0.0
 10
84.325381
 20
0.015867
 30
0.0
 10
81.290363
 20
0.726784
 30
0.0
 10
78.834465
 20
2.347022
 30
0.0
 10
77.152421
 20
4.661385
 30
0.0
 10
76.554110
 20
7.460889
 30
0.0
 10
76.930877
 20
9.748688
 30
0.0
 10
77.977357
 20
11.900809
 30
0.0
 10
79.567820
 20
13.875976
 30
0.0
 10
81.576537
 20
15.632915
 30
0.0
 10
86.333533
 20
18.372588
 30
0.0
 10
88.822680
 20
19.165262
 30
0.0
 10
91.211603
 20
19.479040
 30
0.0
 10
94.843521
 20
19.290657
 30
0.0
 10
96.310336
 20
18.877536
 30
0.0
 10
97.491612
 20
18.151467
 30
0.0
 10
97.491612
 20
77.375235
 30
0.0
 10
99.545061
 20
77.078338
 30
0.0
 10
99.546190
 20
13.364978
 30
0.0
 10
99.546190
 20
13.364978
 30
0.0
  0
LWPOLYLINE
  5
105
100
AcDbEntity
  8
0
 62
7
100
AcDbPolyline
 90
51
 70
0
 10
133.109716
 20
78.932803
 30
0.0
 10
134.113298
 20
72.284635
 30
0.0
 10
135.378253
 20
68.599924
 30
0.0
 10
137.697520
 20
64.795727
 30
0.0
 10
146.550267
 20
54.209007
 30
0.0
 10
148.698560
 20
50.975482
 30
0.0
 10
150.380446
 20
47.509334
 30
0.0
 10
151.477073
 20
43.888670
 30
0.0
 10
151.869592
 20
40.191594
 30
0.0
 10
151.239160
 20
34.289728
 30
0.0
 10
149.656546
 20
28.649270
 30
0.0
 10
147.587310
 20
23.620952
 30
0.0
 10
145.497014
 20
19.555505
 30
0.0
 10
144.262009
 20
19.491158
 30
0.0
 10
147.653050
 20
27.744042
 30
0.0
 10
149.018318
 20
32.815840
 30
0.0
 10
149.441352
 20
38.199105
 30
0.0
 10
149.075327
 20
41.298011
 30
0.0
 10
148.224268
 20
44.393318
 30
0.0
 10
146.915798
 20
47.354853
 30
0.0
 10
145.177538
 20
50.052438
 30
0.0
 10
142.673927
 20
52.840988
 30
0.0
 10
139.665597
 20
55.188742
 30
0.0
 10
136.396282
 20
56.867417
 30
0.0
 10
133.109716
 20
57.648732
 30
0.0
 10
133.109716
 20
12.503336
 30
0.0
 10
132.739952
 20
9.878811
 30
0.0
 10
131.702697
 20
7.415998
 30
0.0
 10
130.106007
 20
5.186866
 30
0.0
 10
128.057938
 20
3.263381
 30
0.0
 10
125.726712
 20
1.728815
 30
0.0
 10
123.181703
 20
0.655788
 30
0.0
 10
120.552873
 20
0.085047
 30
0.0
 10
117.970187
 20
0.057336
 30
0.0
 10
114.941660
 20
0.886364
 30
0.0
 10
112.490560
 20
2.561212
 30
0.0
 10
110.809504
 20
4.889827
 30
0.0
 10
110.211334
 20
7.690883
 30
0.0
 10
110.588136
 20
9.977800
 30
0.0
 10
111.634016
 20
12.125441
 30
0.0
 10
113.222186
 20
14.087238
 30
0.0
 10
115.225858
 20
15.816625
 30
0.0
 10
119.971425
 20
18.446795
 30
0.0
 10
122.456286
 20
19.160059
 30
0.0
 10
124.843992
 20
19.379398
 30
0.0
 10
128.532495
 20
18.999951
 30
0.0
 10
130.041943
 20
18.485160
 30
0.0
 10
131.248178
 20
17.654456
 30
0.0
 10
131.248178
 20
78.947478
 30
0.0
 10
133.109716
 20
78.932803
 30
0.0
 10
133.109716
 20
78.932803
 30
0.0
  0
ENDSEC
  0
SECTION
  2
OBJECTS
  0
DICTIONARY
  5
C
330
0
100
AcDbDictionary
  3
ACAD_GROUP
350
D
  3
ACAD_MLINESTYLE
350
17
  0
DICTIONARY
  5
D
330
C
100
AcDbDictionary
  0
DICTIONARY
  5
1A
330
C
100
AcDbDictionary
  0
DICTIONARY
  5
17
330
C
100
AcDbDictionary
  3
STANDARD
350
18
  0
DICTIONARY
  5
19
330
C
100
AcDbDictionary
  0
ENDSEC
  0
EOF
