<?xml version="1.0" encoding="UTF-8" standalone="no"?>
<!-- Generator: Adobe Illustrator 13.0.0, SVG Export Plug-In . SVG Version: 6.00 Build 14948)  -->

<svg
   xmlns:dc="http://purl.org/dc/elements/1.1/"
   xmlns:cc="http://creativecommons.org/ns#"
   xmlns:rdf="http://www.w3.org/1999/02/22-rdf-syntax-ns#"
   xmlns:svg="http://www.w3.org/2000/svg"
   xmlns="http://www.w3.org/2000/svg"
   xmlns:sodipodi="http://sodipodi.sourceforge.net/DTD/sodipodi-0.dtd"
   xmlns:inkscape="http://www.inkscape.org/namespaces/inkscape"
   sodipodi:docname="music-notes.dxf"
   inkscape:version="0.48.3.1 r9886"
   xml:space="preserve"
   enable-background="new 0 0 563.726 431.065"
   viewBox="0 0 563.726 431.065"
   height="431.065px"
   width="563.726px"
   y="0px"
   x="0px"
   id="Layer_2"
   version="1.1"><sodipodi:namedview
   pagecolor="#ffffff"
   bordercolor="#666666"
   borderopacity="1"
   objecttolerance="10"
   gridtolerance="10"
   guidetolerance="10"
   inkscape:pageopacity="0"
   inkscape:pageshadow="2"
   inkscape:window-width="1400"
   inkscape:window-height="991"
   id="base"
   showgrid="false"
   showguides="true"
   inkscape:guide-bbox="true"
   inkscape:zoom="1.5992874"
   inkscape:cx="359.06765"
   inkscape:cy="61.14925"
   inkscape:window-x="0"
   inkscape:window-y="27"
   inkscape:window-maximized="1"
   inkscape:current-layer="Layer_2" /><metadata
   id="metadata349"><rdf:RDF><cc:Work
       rdf:about=""><dc:format>image/svg+xml</dc:format><dc:type
         rdf:resource="http://purl.org/dc/dcmitype/StillImage" /><dc:title></dc:title></cc:Work></rdf:RDF></metadata><defs
   id="defs347">
	

	

	

	
</defs>














<path
   inkscape:connector-curvature="0"
   id="path66"
   d="M226.20083 154.48292L233.46483 155.52692L233.46483 384.22292L231.989978437 393.030279375L228.2082675 401.634295L222.543962813 409.713873125L215.42133 416.94792L207.264634688 423.015341875L198.4981425 427.595045L189.546119062 430.365935625L180.83283 431.00692L170.80883 429.47992L161.82883 425.04292L156.5586425 419.4848575L153.39633 413.12242L151.63283 398.83492L153.153806562 390.320474687L156.8923925 382.5023575L162.462572188 375.490396562L169.47833 369.39442L186.3025175 360.3897325L204.27683 356.36692L214.63833 356.86092L226.19683 361.36292L226.20083 154.48292L226.20083 154.48292M160.36883 412.33892L161.88233 416.45342L166.83683 418.65092L173.8451425 418.3907325L182.53833 415.72942L192.0497675 410.9148575L201.51283 404.19492L210.52133 396.185795L218.11083 387.45592L223.20733 378.991545L224.73683 371.77892L222.83783 368.34892L219.10883 367.05492L208.95808 368.6796075L197.31483 374.15142L177.93283 387.15492L165.08433 399.83092L161.4352675 406.193295L160.36883 412.33892L160.36883 412.33892" />














<path
   d="M58.69731 355.21251L69.5881206875 356.080604687L80.24100925 358.608365L90.3743731875 362.741732813L99.70661 368.42665L105.708861719 373.842690938L110.36743875 380.4696725L113.203641406 387.982437813L113.73877 396.05583L111.630459031 404.324096094L107.09942475 411.47289625L100.891322594 417.418855781L93.751808 422.0786L81.5534928281 427.408745469L68.586987625 430.42975625L55.3102113594 430.935073906L42.181083 428.71814L32.4267682453 425.423561094L23.1785242125 420.74034875L15.0602837484 414.457287031L8.6959797 406.36316L5.77951372656 399.014885625L5.0699371625 391.1508925L6.61711744219 383.434000625L10.470922 376.52703L17.7343538281 369.220767187L26.357431875 363.61092L45.759398 356.63112L58.69731 355.21251L58.69731 355.21251M65.87661 424.54851L74.65505925 421.178485L77.9251667812 417.855823125L79.834413 413.49995L80.85567275 397.78129L77.563939 382.33152L70.51184175 369.4902325L65.1928669375 364.545570937L58.532405 361.56959L49.997441625 362.1819275L42.491155 366.3044L39.4610823594 371.152430625L38.100404625 376.668655L38.026334 388.1892L39.4917324531 397.521457656L42.429517875 406.58040125L47.0870231094 414.771739219L53.711581 421.50118L59.49496175 424.28753L65.87661 424.54851L65.87661 424.54851"
   id="path140"
   inkscape:connector-curvature="0" />











<path
   inkscape:connector-curvature="0"
   id="path173"
   d="M352.72272 383.70878L351.3685325 392.76828L347.59822 401.56978L341.8501575 409.80878L334.56272 417.18078L326.3177825 423.276655L317.29622 427.76078L307.9649075 430.411905L298.79072 431.00878L288.03672 428.48978L279.33472 422.74878L273.37472 414.54828L271.25472 404.62878L272.58972 396.522405L276.29772 388.89678L281.93322 381.898155L289.05072 375.67278L305.90622 365.96528L314.7260325 363.1565925L323.19072 362.04478L336.05972 362.71228L341.257095 364.1760925L345.44272 366.74878L345.44272 156.90078L352.71872 157.95278L352.72272 383.70878L352.72272 383.70878" />









<path
   inkscape:connector-curvature="0"
   id="path213"
   d="M471.6486 151.38184L475.2046 174.93834L479.686725 187.9944025L487.9046 201.47384L519.2726 238.98584L526.8846625 250.443215L532.8441 262.72484L536.7297875 275.553965L538.1206 288.65384L535.8867875 309.565965L530.2791 329.55184L522.9471625 347.368715L515.5406 361.77384L511.1646 362.00184L523.1801 332.75934L528.0176625 314.7884025L529.5166 295.71384L528.2196625 284.733465L525.2041 273.76584L520.5677875 263.272215L514.4086 253.71384L505.5375375 243.8331525L494.8781 235.51434L483.2939125 229.5662775L471.6486 226.79784L471.6486 386.76184L470.3384125 396.06134L466.6631 404.78784L461.0055375 412.68634L453.7486 419.50184L445.48835 424.9392775L436.4706 428.74134L427.15585 430.7636525L418.0046 430.86184L407.2736 427.92434L398.5886 421.98984L392.6321 413.73884L390.5126 403.81384L391.847725 395.71059L395.5536 388.10084L401.180975 381.14959L408.2806 375.02184L425.0956 365.70234L433.900225 363.1750275L442.3606 362.39784L455.4301 363.74234L460.7785375 365.5664025L465.0526 368.50984L465.0526 151.32984L471.6486 151.38184L471.6486 151.38184" />

























</svg>