  0
SECTION
  2
HEADER
  9
$ACADVER
  1
AC1014
  9
$HANDSEED
  5
FFFF
  9
$MEASUREMENT
 70
     1
  0
ENDSEC
  0
SECTION
  2
TABLES
  0
TABLE
  2
VPORT
  5
8
330
0
100
AcDbSymbolTable
 70
     4
  0
VPORT
  5
2E
330
8
100
AcDbSymbolTableRecord
100
AcDbViewportTableRecord
  2
*ACTIVE
 70
     0
 10
0.0
 20
0.0
 11
1.0
 21
1.0
 12
210.0
 22
148.5
 13
0.0
 23
0.0
 14
10.0
 24
10.0
 15
10.0
 25
10.0
 16
0.0
 26
0.0
 36
1.0
 17
0.0
 27
0.0
 37
0.0
 40
341.0
 41
1.24
 42
50.0
 43
0.0
 44
0.0
 50
0.0
 51
0.0
 71
     0
 72
   100
 73
     1
 74
     3
 75
     0
 76
     0
 77
     0
 78
     0
  0
ENDTAB
  0
TABLE
  2
LTYPE
  5
5
330
0
100
AcDbSymbolTable
 70
     1
  0
LTYPE
  5
14
330
5
100
AcDbSymbolTableRecord
100
AcDbLinetypeTableRecord
  2
BYBLOCK
 70
     0
  3

 72
    65
 73
     0
 40
0.0
  0
LTYPE
  5
15
330
5
100
AcDbSymbolTableRecord
100
AcDbLinetypeTableRecord
  2
BYLAYER
 70
     0
  3

 72
    65
 73
     0
 40
0.0
  0
LTYPE
  5
16
330
5
100
AcDbSymbolTableRecord
100
AcDbLinetypeTableRecord
  2
CONTINUOUS
 70
     0
  3
Solid line
 72
    65
 73
     0
 40
0.0
  0
ENDTAB
  0
TABLE
  2
LAYER
  5
2
100
AcDbSymbolTable
 70
2
  0
LAYER
  5
50
100
AcDbSymbolTableRecord
100
AcDbLayerTableRecord
  2
0
 70
0
  6
CONTINUOUS
  0
LAYER
  5
51
100
AcDbSymbolTableRecord
100
AcDbLayerTableRecord
  2
Layer_1
 70
0
  6
CONTINUOUS
  0
ENDTAB
  0
TABLE
  2
STYLE
  5
3
330
0
100
AcDbSymbolTable
 70
     1
  0
STYLE
  5
11
330
3
100
AcDbSymbolTableRecord
100
AcDbTextStyleTableRecord
  2
STANDARD
 70
     0
 40
0.0
 41
1.0
 50
0.0
 71
     0
 42
2.5
  3
txt
  4

  0
ENDTAB
  0
TABLE
  2
VIEW
  5
6
330
0
100
AcDbSymbolTable
 70
     0
  0
ENDTAB
  0
TABLE
  2
UCS
  5
7
330
0
100
AcDbSymbolTable
 70
     0
  0
ENDTAB
  0
TABLE
  2
APPID
  5
9
330
0
100
AcDbSymbolTable
 70
     2
  0
APPID
  5
12
330
9
100
AcDbSymbolTableRecord
100
AcDbRegAppTableRecord
  2
ACAD
 70
     0
  0
ENDTAB
  0
TABLE
  2
DIMSTYLE
  5
A
330
0
100
AcDbSymbolTable
 70
     1
  0
DIMSTYLE
105
27
330
A
100
AcDbSymbolTableRecord
100
AcDbDimStyleTableRecord
  2
ISO-25
 70
     0
  3

  4

  5

  6

  7

 40
1.0
 41
2.5
 42
0.625
 43
3.75
 44
1.25
 45
0.0
 46
0.0
 47
0.0
 48
0.0
140
2.5
141
2.5
142
0.0
143
0.03937007874016
144
1.0
145
0.0
146
1.0
147
0.625
 71
     0
 72
     0
 73
     0
 74
     0
 75
     0
 76
     0
 77
     1
 78
     8
170
     0
171
     3
172
     1
173
     0
174
     0
175
     0
176
     0
177
     0
178
     0
270
     2
271
     2
272
     2
273
     2
274
     3
340
11
275
     0
280
     0
281
     0
282
     0
283
     0
284
     8
285
     0
286
     0
287
     3
288
     0
  0
ENDTAB
  0
TABLE
  2
BLOCK_RECORD
  5
1
330
0
100
AcDbSymbolTable
 70
     1
  0
BLOCK_RECORD
  5
1F
330
1
100
AcDbSymbolTableRecord
100
AcDbBlockTableRecord
  2
*MODEL_SPACE
  0
BLOCK_RECORD
  5
1B
330
1
100
AcDbSymbolTableRecord
100
AcDbBlockTableRecord
  2
*PAPER_SPACE
  0
ENDTAB
  0
ENDSEC
  0
SECTION
  2
BLOCKS
  0
BLOCK
  5
20
330
1F
100
AcDbEntity
  8
0
100
AcDbBlockBegin
  2
*MODEL_SPACE
 70
     0
 10
0.0
 20
0.0
 30
0.0
  3
*MODEL_SPACE
  1

  0
ENDBLK
  5
21
330
1F
100
AcDbEntity
  8
0
100
AcDbBlockEnd
  0
BLOCK
  5
1C
330
1B
100
AcDbEntity
 67
     1
  8
0
100
AcDbBlockBegin
  2
*PAPER_SPACE
  1

  0
ENDBLK
  5
1D
330
1B
100
AcDbEntity
 67
     1
  8
0
100
AcDbBlockEnd
  0
ENDSEC
  0
SECTION
  2
ENTITIES
  0
LWPOLYLINE
  5
100
100
AcDbEntity
  8
Layer_1
 62
7
100
AcDbPolyline
 90
22
 70
0
 10
14.472708
 20
62.706250
 30
0.0
 10
12.557530
 20
62.317545
 30
0.0
 10
10.990024
 20
61.258864
 30
0.0
 10
9.931344
 20
59.691359
 30
0.0
 10
9.542639
 20
57.776181
 30
0.0
 10
9.542639
 20
14.472708
 30
0.0
 10
9.931344
 20
12.557540
 30
0.0
 10
10.990024
 20
10.990033
 30
0.0
 10
12.557530
 20
9.931347
 30
0.0
 10
14.472708
 20
9.542639
 30
0.0
 10
57.776181
 20
9.542639
 30
0.0
 10
59.691359
 20
9.931347
 30
0.0
 10
61.258864
 20
10.990033
 30
0.0
 10
62.317545
 20
12.557540
 30
0.0
 10
62.706250
 20
14.472708
 30
0.0
 10
62.706250
 20
57.776181
 30
0.0
 10
62.317545
 20
59.691359
 30
0.0
 10
61.258864
 20
61.258864
 30
0.0
 10
59.691359
 20
62.317545
 30
0.0
 10
57.776181
 20
62.706250
 30
0.0
 10
14.472708
 20
62.706250
 30
0.0
 10
14.472708
 20
62.706250
 30
0.0
  0
LWPOLYLINE
  5
101
100
AcDbEntity
  8
Layer_1
 62
7
100
AcDbPolyline
 90
22
 70
0
 10
14.472708
 20
60.801250
 30
0.0
 10
57.776181
 20
60.801250
 30
0.0
 10
58.962243
 20
60.566381
 30
0.0
 10
59.922844
 20
59.922844
 30
0.0
 10
60.566381
 20
58.962243
 30
0.0
 10
60.801250
 20
57.776181
 30
0.0
 10
60.801250
 20
14.472708
 30
0.0
 10
60.566381
 20
13.286654
 30
0.0
 10
59.922844
 20
12.326052
 30
0.0
 10
58.962243
 20
11.682510
 30
0.0
 10
57.776181
 20
11.447639
 30
0.0
 10
14.472708
 20
11.447639
 30
0.0
 10
13.286646
 20
11.682510
 30
0.0
 10
12.326044
 20
12.326052
 30
0.0
 10
11.682508
 20
13.286654
 30
0.0
 10
11.447639
 20
14.472708
 30
0.0
 10
11.447639
 20
57.776181
 30
0.0
 10
11.682508
 20
58.962243
 30
0.0
 10
12.326044
 20
59.922844
 30
0.0
 10
13.286646
 20
60.566381
 30
0.0
 10
14.472708
 20
60.801250
 30
0.0
 10
14.472708
 20
60.801250
 30
0.0
  0
LWPOLYLINE
  5
102
100
AcDbEntity
  8
Layer_1
 62
7
100
AcDbPolyline
 90
55
 70
0
 10
36.627153
 20
54.248403
 30
0.0
 10
36.077185
 20
54.102458
 30
0.0
 10
35.842222
 20
53.507569
 30
0.0
 10
35.303896
 20
52.568038
 30
0.0
 10
34.316458
 20
52.193472
 30
0.0
 10
33.667912
 20
52.048726
 30
0.0
 10
33.372778
 20
51.496736
 30
0.0
 10
33.380246
 20
51.152362
 30
0.0
 10
33.637361
 20
50.817639
 30
0.0
 10
33.912505
 20
50.398096
 30
0.0
 10
34.003989
 20
49.875415
 30
0.0
 10
33.637361
 20
48.797986
 30
0.0
 10
33.369726
 20
48.346425
 30
0.0
 10
33.505069
 20
47.924861
 30
0.0
 10
33.785806
 20
47.580128
 30
0.0
 10
34.325278
 20
47.510347
 30
0.0
 10
34.907206
 20
47.393563
 30
0.0
 10
35.415811
 20
47.085741
 30
0.0
 10
35.776025
 20
46.650673
 30
0.0
 10
35.912778
 20
46.152153
 30
0.0
 10
35.981067
 20
45.787917
 30
0.0
 10
36.221458
 20
45.596528
 30
0.0
 10
36.857307
 20
45.494835
 30
0.0
 10
37.315069
 20
45.914028
 30
0.0
 10
37.715412
 20
46.316948
 30
0.0
 10
38.230315
 20
46.544249
 30
0.0
 10
38.783689
 20
46.577707
 30
0.0
 10
39.299444
 20
46.399097
 30
0.0
 10
39.929034
 20
46.153197
 30
0.0
 10
40.384236
 20
46.416736
 30
0.0
 10
40.562696
 20
46.735837
 30
0.0
 10
40.472431
 20
47.228125
 30
0.0
 10
40.388844
 20
47.781832
 30
0.0
 10
40.613542
 20
48.392292
 30
0.0
 10
40.949842
 20
48.912729
 30
0.0
 10
41.363194
 20
49.168403
 30
0.0
 10
41.900073
 20
49.470413
 30
0.0
 10
42.093313
 20
49.858615
 30
0.0
 10
41.939132
 20
50.256694
 30
0.0
 10
41.433750
 20
50.588333
 30
0.0
 10
40.935514
 20
50.915153
 30
0.0
 10
40.581099
 20
51.401099
 30
0.0
 10
40.406065
 20
51.974550
 30
0.0
 10
40.445972
 20
52.563889
 30
0.0
 10
40.563581
 20
53.187268
 30
0.0
 10
40.234306
 20
53.489931
 30
0.0
 10
39.864719
 20
53.644256
 30
0.0
 10
39.396458
 20
53.428194
 30
0.0
 10
38.869964
 20
53.213380
 30
0.0
 10
38.188194
 20
53.304722
 30
0.0
 10
37.571204
 20
53.514758
 30
0.0
 10
37.235694
 20
53.860347
 30
0.0
 10
36.967966
 20
54.160232
 30
0.0
 10
36.627153
 20
54.248403
 30
0.0
 10
36.627153
 20
54.248403
 30
0.0
  0
LWPOLYLINE
  5
103
100
AcDbEntity
  8
Layer_1
 62
7
100
AcDbPolyline
 90
17
 70
0
 10
37.553194
 20
52.096458
 30
0.0
 10
38.329054
 20
51.919743
 30
0.0
 10
39.026042
 20
51.443819
 30
0.0
 10
39.589338
 20
50.497738
 30
0.0
 10
39.629963
 20
49.457540
 30
0.0
 10
39.185624
 20
48.508693
 30
0.0
 10
38.294028
 20
47.836667
 30
0.0
 10
37.396466
 20
47.665426
 30
0.0
 10
36.459583
 20
47.968958
 30
0.0
 10
35.807287
 20
48.482850
 30
0.0
 10
35.396253
 20
49.164501
 30
0.0
 10
35.256710
 20
49.934092
 30
0.0
 10
35.418889
 20
50.711806
 30
0.0
 10
35.795482
 20
51.320417
 30
0.0
 10
36.306125
 20
51.760997
 30
0.0
 10
37.553194
 20
52.096458
 30
0.0
 10
37.553194
 20
52.096458
 30
0.0
  0
LWPOLYLINE
  5
104
100
AcDbEntity
  8
Layer_1
 62
7
100
AcDbPolyline
 90
84
 70
0
 10
48.709792
 20
49.865139
 30
0.0
 10
47.986597
 20
49.768125
 30
0.0
 10
47.148750
 20
49.574097
 30
0.0
 10
46.884167
 20
48.506944
 30
0.0
 10
46.692104
 20
47.663920
 30
0.0
 10
46.310903
 20
47.342778
 30
0.0
 10
45.829080
 20
47.241033
 30
0.0
 10
45.058542
 20
47.669097
 30
0.0
 10
44.097222
 20
48.198264
 30
0.0
 10
43.356389
 20
47.677917
 30
0.0
 10
42.756667
 20
47.166389
 30
0.0
 10
43.259375
 20
46.160972
 30
0.0
 10
43.762083
 20
45.164375
 30
0.0
 10
43.471042
 20
44.758681
 30
0.0
 10
43.125808
 20
44.427455
 30
0.0
 10
42.589097
 20
44.352986
 30
0.0
 10
41.422741
 20
44.223420
 30
0.0
 10
41.001597
 20
43.682708
 30
0.0
 10
40.924548
 20
42.726436
 30
0.0
 10
41.795347
 20
42.051111
 30
0.0
 10
42.556270
 20
41.543974
 30
0.0
 10
42.765486
 20
41.116250
 30
0.0
 10
42.657258
 20
40.647376
 30
0.0
 10
41.980556
 20
39.952083
 30
0.0
 10
41.133889
 20
39.193611
 30
0.0
 10
41.486667
 20
38.452778
 30
0.0
 10
41.830625
 20
37.720764
 30
0.0
 10
42.483264
 20
37.808958
 30
0.0
 10
43.550417
 20
37.976528
 30
0.0
 10
43.943768
 20
37.958853
 30
0.0
 10
44.282431
 20
37.703125
 30
0.0
 10
44.599931
 20
37.359167
 30
0.0
 10
44.370625
 20
36.327292
 30
0.0
 10
44.211875
 20
35.180764
 30
0.0
 10
44.908611
 20
34.730972
 30
0.0
 10
45.534792
 20
34.387014
 30
0.0
 10
46.266806
 20
35.110208
 30
0.0
 10
46.992022
 20
35.704282
 30
0.0
 10
47.554728
 20
35.832387
 30
0.0
 10
48.031303
 20
35.478134
 30
0.0
 10
48.498125
 20
34.625139
 30
0.0
 10
48.877361
 20
33.760833
 30
0.0
 10
49.485903
 20
33.760833
 30
0.0
 10
50.394304
 20
33.951722
 30
0.0
 10
50.694167
 20
34.827986
 30
0.0
 10
50.919884
 20
35.821072
 30
0.0
 10
51.435000
 20
36.230278
 30
0.0
 10
51.910670
 20
36.288979
 30
0.0
 10
52.705000
 20
35.851042
 30
0.0
 10
53.569306
 20
35.295417
 30
0.0
 10
54.107292
 20
35.718750
 30
0.0
 10
54.715833
 20
36.344931
 30
0.0
 10
54.354236
 20
37.438542
 30
0.0
 10
54.002468
 20
38.270929
 30
0.0
 10
54.169028
 20
38.761458
 30
0.0
 10
54.470278
 20
39.111500
 30
0.0
 10
54.901042
 20
39.228889
 30
0.0
 10
56.326126
 20
39.428693
 30
0.0
 10
56.553627
 20
39.666223
 30
0.0
 10
56.673750
 20
40.102014
 30
0.0
 10
56.814861
 20
40.922222
 30
0.0
 10
55.853542
 20
41.530764
 30
0.0
 10
55.016710
 20
42.023180
 30
0.0
 10
54.892222
 20
42.562639
 30
0.0
 10
54.998056
 20
43.118264
 30
0.0
 10
55.774167
 20
43.744444
 30
0.0
 10
56.444444
 20
44.361806
 30
0.0
 10
56.118125
 20
45.049722
 30
0.0
 10
55.694792
 20
45.808194
 30
0.0
 10
54.627639
 20
45.720000
 30
0.0
 10
53.742041
 20
45.634648
 30
0.0
 10
53.340000
 20
45.940486
 30
0.0
 10
53.013681
 20
46.319722
 30
0.0
 10
53.251806
 20
47.289861
 30
0.0
 10
53.364009
 20
48.312302
 30
0.0
 10
52.528611
 20
48.895000
 30
0.0
 10
52.017083
 20
49.159583
 30
0.0
 10
51.223333
 20
48.436389
 30
0.0
 10
50.506242
 20
47.871154
 30
0.0
 10
50.032708
 20
47.766111
 30
0.0
 10
49.629931
 20
47.981332
 30
0.0
 10
49.177222
 20
48.833264
 30
0.0
 10
48.709792
 20
49.865139
 30
0.0
 10
48.709792
 20
49.865139
 30
0.0
  0
LWPOLYLINE
  5
105
100
AcDbEntity
  8
Layer_1
 62
7
100
AcDbPolyline
 90
22
 70
0
 10
48.842083
 20
46.063958
 30
0.0
 10
49.928569
 20
46.000149
 30
0.0
 10
50.720625
 20
45.693542
 30
0.0
 10
51.898481
 20
44.828753
 30
0.0
 10
52.722639
 20
43.682708
 30
0.0
 10
53.085025
 20
42.065812
 30
0.0
 10
52.899028
 20
40.375417
 30
0.0
 10
52.037802
 20
38.991654
 30
0.0
 10
50.711806
 20
37.923611
 30
0.0
 10
49.127288
 20
37.522599
 30
0.0
 10
47.519167
 20
37.659028
 30
0.0
 10
46.474461
 20
38.162731
 30
0.0
 10
45.639718
 20
38.887488
 30
0.0
 10
45.028019
 20
39.779327
 30
0.0
 10
44.652440
 20
40.784273
 30
0.0
 10
44.526062
 20
41.848356
 30
0.0
 10
44.661963
 20
42.917602
 30
0.0
 10
45.073221
 20
43.938039
 30
0.0
 10
45.772917
 20
44.855694
 30
0.0
 10
47.125744
 20
45.790590
 30
0.0
 10
48.842083
 20
46.063958
 30
0.0
 10
48.842083
 20
46.063958
 30
0.0
  0
LWPOLYLINE
  5
106
100
AcDbEntity
  8
Layer_1
 62
7
100
AcDbPolyline
 90
107
 70
0
 10
27.110972
 20
45.587708
 30
0.0
 10
25.805694
 20
45.296667
 30
0.0
 10
24.641528
 20
45.005625
 30
0.0
 10
24.641528
 20
43.815000
 30
0.0
 10
24.632708
 20
42.633194
 30
0.0
 10
23.644931
 20
42.112847
 30
0.0
 10
22.542500
 20
41.601319
 30
0.0
 10
21.545903
 20
42.165764
 30
0.0
 10
20.522847
 20
42.677292
 30
0.0
 10
19.543889
 20
41.812986
 30
0.0
 10
18.679583
 20
40.983958
 30
0.0
 10
19.252847
 20
39.934444
 30
0.0
 10
19.826111
 20
38.876111
 30
0.0
 10
19.252847
 20
37.905972
 30
0.0
 10
18.688403
 20
36.927014
 30
0.0
 10
17.427222
 20
36.927014
 30
0.0
 10
16.166042
 20
36.927014
 30
0.0
 10
15.848542
 20
35.789306
 30
0.0
 10
15.513403
 20
34.554583
 30
0.0
 10
16.527639
 20
33.866667
 30
0.0
 10
17.345712
 20
33.333038
 30
0.0
 10
17.550694
 20
32.967083
 30
0.0
 10
17.515417
 20
31.802917
 30
0.0
 10
17.488958
 20
30.947431
 30
0.0
 10
16.457083
 20
30.391806
 30
0.0
 10
15.434028
 20
29.642153
 30
0.0
 10
15.680972
 20
28.398611
 30
0.0
 10
15.919097
 20
27.366736
 30
0.0
 10
17.100903
 20
27.296181
 30
0.0
 10
18.353264
 20
27.163889
 30
0.0
 10
18.935347
 20
26.105556
 30
0.0
 10
19.464514
 20
25.117778
 30
0.0
 10
18.803056
 20
24.130000
 30
0.0
 10
18.150417
 20
23.142222
 30
0.0
 10
19.076458
 20
22.207361
 30
0.0
 10
20.002500
 20
21.272500
 30
0.0
 10
21.052014
 20
21.836944
 30
0.0
 10
22.101528
 20
22.401389
 30
0.0
 10
22.674792
 20
21.978056
 30
0.0
 10
23.689028
 20
21.378333
 30
0.0
 10
24.121181
 20
21.201944
 30
0.0
 10
24.032986
 20
20.011319
 30
0.0
 10
23.944792
 20
18.820694
 30
0.0
 10
25.197153
 20
18.441458
 30
0.0
 10
26.520069
 20
18.132778
 30
0.0
 10
27.102153
 20
19.076458
 30
0.0
 10
27.604861
 20
19.940764
 30
0.0
 10
28.839583
 20
19.984861
 30
0.0
 10
30.074306
 20
20.020139
 30
0.0
 10
30.621111
 20
18.979444
 30
0.0
 10
31.120779
 20
18.150847
 30
0.0
 10
31.450139
 20
18.009306
 30
0.0
 10
32.711319
 20
18.309167
 30
0.0
 10
33.707917
 20
18.547292
 30
0.0
 10
33.743194
 20
19.702639
 30
0.0
 10
33.787292
 20
20.849167
 30
0.0
 10
34.845625
 20
21.422431
 30
0.0
 10
35.903958
 20
21.986875
 30
0.0
 10
36.565417
 20
21.572361
 30
0.0
 10
37.517917
 20
20.972639
 30
0.0
 10
37.915663
 20
20.945571
 30
0.0
 10
38.770278
 20
21.669375
 30
0.0
 10
39.722778
 20
22.551319
 30
0.0
 10
39.175972
 20
23.592014
 30
0.0
 10
38.620347
 20
24.623889
 30
0.0
 10
39.034861
 20
25.197153
 30
0.0
 10
39.625764
 20
26.193750
 30
0.0
 10
39.802153
 20
26.608264
 30
0.0
 10
41.001597
 20
26.608264
 30
0.0
 10
42.201042
 20
26.608264
 30
0.0
 10
42.492083
 20
27.631319
 30
0.0
 10
42.871319
 20
28.857222
 30
0.0
 10
42.697924
 20
29.153031
 30
0.0
 10
41.962917
 20
29.650972
 30
0.0
 10
40.975139
 20
30.241875
 30
0.0
 10
41.054514
 20
30.938611
 30
0.0
 10
41.142708
 20
32.217431
 30
0.0
 10
41.262712
 20
32.785451
 30
0.0
 10
42.095208
 20
33.275764
 30
0.0
 10
43.047708
 20
33.752014
 30
0.0
 10
42.844861
 20
34.616319
 30
0.0
 10
42.391658
 20
36.168906
 30
0.0
 10
42.033763
 20
36.320371
 30
0.0
 10
41.336736
 20
36.344931
 30
0.0
 10
40.243125
 20
36.389028
 30
0.0
 10
39.696319
 20
37.438542
 30
0.0
 10
39.105417
 20
38.576250
 30
0.0
 10
39.625764
 20
39.519931
 30
0.0
 10
40.181389
 20
40.384236
 30
0.0
 10
39.334722
 20
41.336736
 30
0.0
 10
38.417500
 20
42.289236
 30
0.0
 10
37.447361
 20
41.786528
 30
0.0
 10
36.547778
 20
41.283819
 30
0.0
 10
36.133264
 20
41.530764
 30
0.0
 10
35.022014
 20
42.165764
 30
0.0
 10
34.334097
 20
42.553819
 30
0.0
 10
34.334097
 20
43.673889
 30
0.0
 10
34.334097
 20
44.802778
 30
0.0
 10
33.231667
 20
45.120278
 30
0.0
 10
31.996944
 20
45.446597
 30
0.0
 10
31.300208
 20
44.520556
 30
0.0
 10
30.647569
 20
43.629792
 30
0.0
 10
29.386389
 20
43.665069
 30
0.0
 10
28.222222
 20
43.665069
 30
0.0
 10
27.737153
 20
44.626389
 30
0.0
 10
27.110972
 20
45.587708
 30
0.0
 10
27.110972
 20
45.587708
 30
0.0
  0
LWPOLYLINE
  5
107
100
AcDbEntity
  8
Layer_1
 62
7
100
AcDbPolyline
 90
29
 70
0
 10
29.333472
 20
39.925625
 30
0.0
 10
30.889732
 20
39.794413
 30
0.0
 10
32.333626
 20
39.380803
 30
0.0
 10
33.673121
 20
38.681774
 30
0.0
 10
34.916181
 20
37.694306
 30
0.0
 10
36.531058
 20
35.612529
 30
0.0
 10
37.378641
 20
33.230888
 30
0.0
 10
37.431556
 20
30.699706
 30
0.0
 10
36.662431
 20
28.169306
 30
0.0
 10
35.707748
 20
26.687422
 30
0.0
 10
34.406064
 20
25.405306
 30
0.0
 10
32.867755
 20
24.411580
 30
0.0
 10
31.203194
 20
23.794861
 30
0.0
 10
29.275132
 20
23.610432
 30
0.0
 10
27.357917
 20
23.803681
 30
0.0
 10
25.306814
 20
24.643349
 30
0.0
 10
23.528152
 20
26.032656
 30
0.0
 10
22.156247
 20
27.835444
 30
0.0
 10
21.325417
 20
29.915556
 30
0.0
 10
21.141782
 20
31.494428
 30
0.0
 10
21.283475
 20
33.154985
 30
0.0
 10
21.726156
 20
34.765689
 30
0.0
 10
22.445486
 20
36.195000
 30
0.0
 10
23.702647
 20
37.711236
 30
0.0
 10
25.223359
 20
38.852838
 30
0.0
 10
26.969094
 20
39.595973
 30
0.0
 10
28.901319
 20
39.916806
 30
0.0
 10
29.333472
 20
39.925625
 30
0.0
 10
29.333472
 20
39.925625
 30
0.0
  0
ENDSEC
  0
SECTION
  2
OBJECTS
  0
DICTIONARY
  5
C
330
0
100
AcDbDictionary
  3
ACAD_GROUP
350
D
  3
ACAD_MLINESTYLE
350
17
  0
DICTIONARY
  5
D
330
C
100
AcDbDictionary
  0
DICTIONARY
  5
1A
330
C
100
AcDbDictionary
  0
DICTIONARY
  5
17
330
C
100
AcDbDictionary
  3
STANDARD
350
18
  0
DICTIONARY
  5
19
330
C
100
AcDbDictionary
  0
ENDSEC
  0
EOF
