  0
SECTION
  2
HEADER
  9
$ACADVER
  1
AC1014
  9
$HANDSEED
  5
FFFF
  9
$MEASUREMENT
 70
     1
  0
ENDSEC
  0
SECTION
  2
TABLES
  0
TABLE
  2
VPORT
  5
8
330
0
100
AcDbSymbolTable
 70
     4
  0
VPORT
  5
2E
330
8
100
AcDbSymbolTableRecord
100
AcDbViewportTableRecord
  2
*ACTIVE
 70
     0
 10
0.0
 20
0.0
 11
1.0
 21
1.0
 12
210.0
 22
148.5
 13
0.0
 23
0.0
 14
10.0
 24
10.0
 15
10.0
 25
10.0
 16
0.0
 26
0.0
 36
1.0
 17
0.0
 27
0.0
 37
0.0
 40
341.0
 41
1.24
 42
50.0
 43
0.0
 44
0.0
 50
0.0
 51
0.0
 71
     0
 72
   100
 73
     1
 74
     3
 75
     0
 76
     0
 77
     0
 78
     0
  0
ENDTAB
  0
TABLE
  2
LTYPE
  5
5
330
0
100
AcDbSymbolTable
 70
     1
  0
LTYPE
  5
14
330
5
100
AcDbSymbolTableRecord
100
AcDbLinetypeTableRecord
  2
BYBLOCK
 70
     0
  3

 72
    65
 73
     0
 40
0.0
  0
LTYPE
  5
15
330
5
100
AcDbSymbolTableRecord
100
AcDbLinetypeTableRecord
  2
BYLAYER
 70
     0
  3

 72
    65
 73
     0
 40
0.0
  0
LTYPE
  5
16
330
5
100
AcDbSymbolTableRecord
100
AcDbLinetypeTableRecord
  2
CONTINUOUS
 70
     0
  3
Solid line
 72
    65
 73
     0
 40
0.0
  0
ENDTAB
  0
TABLE
  2
LAYER
  5
2
100
AcDbSymbolTable
 70
2
  0
LAYER
  5
50
100
AcDbSymbolTableRecord
100
AcDbLayerTableRecord
  2
0
 70
0
  6
CONTINUOUS
  0
LAYER
  5
51
100
AcDbSymbolTableRecord
100
AcDbLayerTableRecord
  2
Layer_1
 70
0
  6
CONTINUOUS
  0
ENDTAB
  0
TABLE
  2
STYLE
  5
3
330
0
100
AcDbSymbolTable
 70
     1
  0
STYLE
  5
11
330
3
100
AcDbSymbolTableRecord
100
AcDbTextStyleTableRecord
  2
STANDARD
 70
     0
 40
0.0
 41
1.0
 50
0.0
 71
     0
 42
2.5
  3
txt
  4

  0
ENDTAB
  0
TABLE
  2
VIEW
  5
6
330
0
100
AcDbSymbolTable
 70
     0
  0
ENDTAB
  0
TABLE
  2
UCS
  5
7
330
0
100
AcDbSymbolTable
 70
     0
  0
ENDTAB
  0
TABLE
  2
APPID
  5
9
330
0
100
AcDbSymbolTable
 70
     2
  0
APPID
  5
12
330
9
100
AcDbSymbolTableRecord
100
AcDbRegAppTableRecord
  2
ACAD
 70
     0
  0
ENDTAB
  0
TABLE
  2
DIMSTYLE
  5
A
330
0
100
AcDbSymbolTable
 70
     1
  0
DIMSTYLE
105
27
330
A
100
AcDbSymbolTableRecord
100
AcDbDimStyleTableRecord
  2
ISO-25
 70
     0
  3

  4

  5

  6

  7

 40
1.0
 41
2.5
 42
0.625
 43
3.75
 44
1.25
 45
0.0
 46
0.0
 47
0.0
 48
0.0
140
2.5
141
2.5
142
0.0
143
0.03937007874016
144
1.0
145
0.0
146
1.0
147
0.625
 71
     0
 72
     0
 73
     0
 74
     0
 75
     0
 76
     0
 77
     1
 78
     8
170
     0
171
     3
172
     1
173
     0
174
     0
175
     0
176
     0
177
     0
178
     0
270
     2
271
     2
272
     2
273
     2
274
     3
340
11
275
     0
280
     0
281
     0
282
     0
283
     0
284
     8
285
     0
286
     0
287
     3
288
     0
  0
ENDTAB
  0
TABLE
  2
BLOCK_RECORD
  5
1
330
0
100
AcDbSymbolTable
 70
     1
  0
BLOCK_RECORD
  5
1F
330
1
100
AcDbSymbolTableRecord
100
AcDbBlockTableRecord
  2
*MODEL_SPACE
  0
BLOCK_RECORD
  5
1B
330
1
100
AcDbSymbolTableRecord
100
AcDbBlockTableRecord
  2
*PAPER_SPACE
  0
ENDTAB
  0
ENDSEC
  0
SECTION
  2
BLOCKS
  0
BLOCK
  5
20
330
1F
100
AcDbEntity
  8
0
100
AcDbBlockBegin
  2
*MODEL_SPACE
 70
     0
 10
0.0
 20
0.0
 30
0.0
  3
*MODEL_SPACE
  1

  0
ENDBLK
  5
21
330
1F
100
AcDbEntity
  8
0
100
AcDbBlockEnd
  0
BLOCK
  5
1C
330
1B
100
AcDbEntity
 67
     1
  8
0
100
AcDbBlockBegin
  2
*PAPER_SPACE
  1

  0
ENDBLK
  5
1D
330
1B
100
AcDbEntity
 67
     1
  8
0
100
AcDbBlockEnd
  0
ENDSEC
  0
SECTION
  2
ENTITIES
  0
LWPOLYLINE
  5
100
100
AcDbEntity
  8
Layer_1
 62
7
100
AcDbPolyline
 90
67
 70
0
 10
18.942492
 20
39.906320
 30
0.0
 10
15.670478
 20
39.465347
 30
0.0
 10
15.547006
 20
37.383958
 30
0.0
 10
12.883534
 20
36.475556
 30
0.0
 10
11.525339
 20
38.054236
 30
0.0
 10
8.535548
 20
36.325625
 30
0.0
 10
9.214645
 20
34.358889
 30
0.0
 10
7.106798
 20
32.506806
 30
0.0
 10
5.245895
 20
33.441667
 30
0.0
 10
3.138048
 20
30.698820
 30
0.0
 10
4.522700
 20
29.146597
 30
0.0
 10
3.287978
 20
26.633056
 30
0.0
 10
1.197770
 20
26.782986
 30
0.0
 10
0.315825
 20
23.440417
 30
0.0
 10
2.194367
 20
22.532014
 30
0.0
 10
2.009159
 20
19.736250
 30
0.0
 10
0.033603
 20
19.083611
 30
0.0
 10
0.474575
 20
15.661667
 30
0.0
 10
2.555964
 20
15.538195
 30
0.0
 10
3.464367
 20
12.874725
 30
0.0
 10
1.885686
 20
11.507697
 30
0.0
 10
3.614298
 20
8.535558
 30
0.0
 10
5.572214
 20
9.214642
 30
0.0
 10
7.424298
 20
7.106808
 30
0.0
 10
6.489436
 20
5.245892
 30
0.0
 10
9.241103
 20
3.138058
 30
0.0
 10
10.793325
 20
4.522697
 30
0.0
 10
13.306867
 20
3.279170
 30
0.0
 10
13.156936
 20
1.197781
 30
0.0
 10
16.490686
 20
0.315836
 30
0.0
 10
17.399089
 20
2.194364
 30
0.0
 10
20.194853
 20
2.009170
 30
0.0
 10
20.847492
 20
0.033614
 30
0.0
 10
24.269436
 20
0.474586
 30
0.0
 10
24.392909
 20
2.547142
 30
0.0
 10
27.056381
 20
3.455558
 30
0.0
 10
28.414576
 20
1.876864
 30
0.0
 10
31.413188
 20
3.605475
 30
0.0
 10
30.725271
 20
5.581030
 30
0.0
 10
32.824299
 20
7.433114
 30
0.0
 10
34.702840
 20
6.489447
 30
0.0
 10
36.793049
 20
9.241114
 30
0.0
 10
35.417215
 20
10.784503
 30
0.0
 10
36.651938
 20
13.298058
 30
0.0
 10
38.742146
 20
13.148114
 30
0.0
 10
39.624090
 20
16.490695
 30
0.0
 10
37.745549
 20
17.399097
 30
0.0
 10
37.930757
 20
20.194861
 30
0.0
 10
39.906313
 20
20.847500
 30
0.0
 10
39.465340
 20
24.269445
 30
0.0
 10
37.383951
 20
24.392917
 30
0.0
 10
36.475549
 20
27.056389
 30
0.0
 10
38.054229
 20
28.423403
 30
0.0
 10
36.325618
 20
31.404375
 30
0.0
 10
34.358882
 20
30.725278
 30
0.0
 10
32.515618
 20
32.824306
 30
0.0
 10
33.450479
 20
34.685208
 30
0.0
 10
30.707632
 20
36.793056
 30
0.0
 10
29.146590
 20
35.408403
 30
0.0
 10
26.633048
 20
36.651945
 30
0.0
 10
26.782978
 20
38.733333
 30
0.0
 10
23.458048
 20
39.624097
 30
0.0
 10
22.549645
 20
37.745556
 30
0.0
 10
19.745061
 20
37.930764
 30
0.0
 10
19.092423
 20
39.906320
 30
0.0
 10
18.942492
 20
39.906320
 30
0.0
 10
18.942492
 20
39.906320
 30
0.0
  0
LWPOLYLINE
  5
101
100
AcDbEntity
  8
Layer_1
 62
7
100
AcDbPolyline
 90
18
 70
0
 10
19.974367
 20
33.944375
 30
0.0
 10
25.412865
 20
32.845413
 30
0.0
 10
29.853309
 20
29.848907
 30
0.0
 10
32.846783
 20
25.405431
 30
0.0
 10
33.944368
 20
19.965556
 30
0.0
 10
32.846783
 20
14.527052
 30
0.0
 10
29.853309
 20
10.086624
 30
0.0
 10
25.412865
 20
7.093149
 30
0.0
 10
19.974367
 20
5.995558
 30
0.0
 10
14.534491
 20
7.093149
 30
0.0
 10
10.091015
 20
10.086624
 30
0.0
 10
7.094510
 20
14.527052
 30
0.0
 10
5.995548
 20
19.965556
 30
0.0
 10
7.094510
 20
25.405431
 30
0.0
 10
10.091015
 20
29.848907
 30
0.0
 10
14.534491
 20
32.845413
 30
0.0
 10
19.974367
 20
33.944375
 30
0.0
 10
19.974367
 20
33.944375
 30
0.0
  0
ENDSEC
  0
SECTION
  2
OBJECTS
  0
DICTIONARY
  5
C
330
0
100
AcDbDictionary
  3
ACAD_GROUP
350
D
  3
ACAD_MLINESTYLE
350
17
  0
DICTIONARY
  5
D
330
C
100
AcDbDictionary
  0
DICTIONARY
  5
1A
330
C
100
AcDbDictionary
  0
DICTIONARY
  5
17
330
C
100
AcDbDictionary
  3
STANDARD
350
18
  0
DICTIONARY
  5
19
330
C
100
AcDbDictionary
  0
ENDSEC
  0
EOF
