solid OpenSCAD_Model
  facet normal -0.991798 -0.127815 -0
    outer loop
      vertex -19.966 -0.916 0
      vertex -19.525 -4.338 0
      vertex -19.966 -0.916 99.966
    endloop
  endfacet
  facet normal -0.991798 -0.127815 0
    outer loop
      vertex -19.966 -0.916 99.966
      vertex -19.525 -4.338 0
      vertex -19.525 -4.338 99.525
    endloop
  endfacet
  facet normal -0 0 -1
    outer loop
      vertex -19.966 -0.916 0
      vertex -17.991 -0.264 0
      vertex -19.525 -4.338 0
    endloop
  endfacet
  facet normal 0 0 -1
    outer loop
      vertex -15.477 9.147 0
      vertex -17.991 -0.264 0
      vertex -16.712 6.633 0
    endloop
  endfacet
  facet normal 0 0 -1
    outer loop
      vertex -18.802 6.783 0
      vertex -17.806 2.532 0
      vertex -19.684 3.44 0
    endloop
  endfacet
  facet normal 0 0 -1
    outer loop
      vertex -16.712 6.633 0
      vertex -17.806 2.532 0
      vertex -18.802 6.783 0
    endloop
  endfacet
  facet normal 0 0 -1
    outer loop
      vertex -17.991 -0.264 0
      vertex -17.806 2.532 0
      vertex -16.712 6.633 0
    endloop
  endfacet
  facet normal 0 0 -1
    outer loop
      vertex -19.525 -4.338 0
      vertex -17.991 -0.264 0
      vertex -12.893 12.507 0
    endloop
  endfacet
  facet normal 0 0 -1
    outer loop
      vertex -14.754 13.442 0
      vertex -15.477 9.147 0
      vertex -16.862 10.699 0
    endloop
  endfacet
  facet normal 0 0 -1
    outer loop
      vertex -12.893 12.507 0
      vertex -15.477 9.147 0
      vertex -14.754 13.442 0
    endloop
  endfacet
  facet normal 0 0 -1
    outer loop
      vertex -17.991 -0.264 0
      vertex -15.477 9.147 0
      vertex -12.893 12.507 0
    endloop
  endfacet
  facet normal 0 0 -1
    outer loop
      vertex -19.525 -4.338 0
      vertex -12.893 12.507 0
      vertex -10.785 14.359 0
    endloop
  endfacet
  facet normal 0 -0 -1
    outer loop
      vertex -10.785 14.359 0
      vertex -11.464 16.326 0
      vertex -8.475 18.054 0
    endloop
  endfacet
  facet normal -0 0 -1
    outer loop
      vertex -10.785 14.359 0
      vertex -8.475 18.054 0
      vertex -19.525 -4.338 0
    endloop
  endfacet
  facet normal 0 0 -1
    outer loop
      vertex -19.525 -4.338 0
      vertex -8.475 18.054 0
      vertex -7.116 16.476 0
    endloop
  endfacet
  facet normal 0 0 -1
    outer loop
      vertex -9.909 9.849 0
      vertex -7.116 16.476 0
      vertex -4.453 17.384 0
    endloop
  endfacet
  facet normal 0 0 -1
    outer loop
      vertex -4.453 17.384 0
      vertex -4.33 19.465 0
      vertex -1.058 19.906 0
    endloop
  endfacet
  facet normal 0 0 -1
    outer loop
      vertex 5.413 12.845 0
      vertex 12.516 12.824 0
      vertex 9.853 9.849 0
    endloop
  endfacet
  facet normal 0 0 -1
    outer loop
      vertex -5.466 12.845 0
      vertex -0.908 19.906 0
      vertex -0.255 17.931 0
    endloop
  endfacet
  facet normal -0 0 -1
    outer loop
      vertex -0.026 13.944 0
      vertex 9.147 15.408 0
      vertex 5.413 12.845 0
    endloop
  endfacet
  facet normal 0 0 -1
    outer loop
      vertex 2.55 17.746 0
      vertex 3.458 19.624 0
      vertex 6.783 18.733 0
    endloop
  endfacet
  facet normal 0 0 -1
    outer loop
      vertex 5.413 12.845 0
      vertex 9.147 15.408 0
      vertex 13.45 14.685 0
    endloop
  endfacet
  facet normal 0 0 -1
    outer loop
      vertex -12.905 -5.473 0
      vertex -17.444 -4.462 0
      vertex -14.004 -0.034 0
    endloop
  endfacet
  facet normal -0 0 -1
    outer loop
      vertex 9.147 15.408 0
      vertex 10.708 16.793 0
      vertex 13.45 14.685 0
    endloop
  endfacet
  facet normal 0 0 -1
    outer loop
      vertex 9.853 9.849 0
      vertex 12.516 12.824 0
      vertex 14.359 10.725 0
    endloop
  endfacet
  facet normal -0 0 -1
    outer loop
      vertex 12.847 5.405 0
      vertex 16.476 7.056 0
      vertex 17.384 4.393 0
    endloop
  endfacet
  facet normal 0 0 -1
    outer loop
      vertex 13.944 -0.034 0
      vertex 19.906 0.848 0
      vertex 17.931 0.195 0
    endloop
  endfacet
  facet normal 0 0 -1
    outer loop
      vertex 5.413 -12.907 0
      vertex 11.413 -16.395 0
      vertex 7.056 -16.544 0
    endloop
  endfacet
  facet normal -0 0 -1
    outer loop
      vertex 16.652 -6.702 0
      vertex 19.624 -3.509 0
      vertex 18.742 -6.852 0
    endloop
  endfacet
  facet normal -0 0 -1
    outer loop
      vertex 12.847 -5.473 0
      vertex 19.624 -3.509 0
      vertex 16.652 -6.702 0
    endloop
  endfacet
  facet normal 0 0 -1
    outer loop
      vertex -9.909 9.849 0
      vertex -0.908 19.906 0
      vertex -5.466 12.845 0
    endloop
  endfacet
  facet normal -0 0 -1
    outer loop
      vertex 12.824 -12.567 0
      vertex 16.793 -10.759 0
      vertex 14.703 -13.511 0
    endloop
  endfacet
  facet normal 0 0 -1
    outer loop
      vertex 9.853 -9.913 0
      vertex 16.793 -10.759 0
      vertex 12.824 -12.567 0
    endloop
  endfacet
  facet normal 0 -0 -1
    outer loop
      vertex 4.393 -17.453 0
      vertex -0.026 -14.004 0
      vertex 7.056 -16.544 0
    endloop
  endfacet
  facet normal 0 0 -1
    outer loop
      vertex 5.413 -12.907 0
      vertex 10.725 -14.419 0
      vertex 11.413 -16.395 0
    endloop
  endfacet
  facet normal -0 0 -1
    outer loop
      vertex 7.056 -16.544 0
      vertex 11.413 -16.395 0
      vertex 8.415 -18.123 0
    endloop
  endfacet
  facet normal 0 0 -1
    outer loop
      vertex -5.466 12.845 0
      vertex 2.55 17.746 0
      vertex -0.026 13.944 0
    endloop
  endfacet
  facet normal -0 0 -1
    outer loop
      vertex 13.944 -0.034 0
      vertex 17.931 0.195 0
      vertex 17.746 -2.601 0
    endloop
  endfacet
  facet normal 0 0 -1
    outer loop
      vertex -5.466 -12.907 0
      vertex 4.393 -17.453 0
      vertex 4.269 -19.525 0
    endloop
  endfacet
  facet normal 0 0 -1
    outer loop
      vertex 0.195 -17.991 0
      vertex 4.269 -19.525 0
      vertex 0.847 -19.966 0
    endloop
  endfacet
  facet normal 0 0 -1
    outer loop
      vertex 9.853 9.849 0
      vertex 16.476 7.056 0
      vertex 12.847 5.405 0
    endloop
  endfacet
  facet normal 0 -0 -1
    outer loop
      vertex -10.759 -16.862 0
      vertex -12.576 -12.893 0
      vertex -9.207 -15.477 0
    endloop
  endfacet
  facet normal 0 0 -1
    outer loop
      vertex 12.847 -5.473 0
      vertex 16.652 -6.702 0
      vertex 15.417 -9.215 0
    endloop
  endfacet
  facet normal 0 0 -1
    outer loop
      vertex -16.536 -7.125 0
      vertex -2.601 -17.806 0
      vertex -3.509 -19.684 0
    endloop
  endfacet
  facet normal 0 0 -1
    outer loop
      vertex -6.693 -16.721 0
      vertex -3.509 -19.684 0
      vertex -6.843 -18.802 0
    endloop
  endfacet
  facet normal 0 0 -1
    outer loop
      vertex -9.909 -9.913 0
      vertex -17.444 -4.462 0
      vertex -12.905 -5.473 0
    endloop
  endfacet
  facet normal 0 0 -1
    outer loop
      vertex -12.576 -12.893 0
      vertex -10.759 -16.862 0
      vertex -13.511 -14.754 0
    endloop
  endfacet
  facet normal 0 0 -1
    outer loop
      vertex -16.536 -7.125 0
      vertex -9.207 -15.477 0
      vertex -12.576 -12.893 0
    endloop
  endfacet
  facet normal 0 0 -1
    outer loop
      vertex -16.536 -7.125 0
      vertex -6.693 -16.721 0
      vertex -9.207 -15.477 0
    endloop
  endfacet
  facet normal 0 0 -1
    outer loop
      vertex -16.536 -7.125 0
      vertex -3.509 -19.684 0
      vertex -6.693 -16.721 0
    endloop
  endfacet
  facet normal 0 0 -1
    outer loop
      vertex 17.384 4.393 0
      vertex 19.465 4.269 0
      vertex 19.906 0.848 0
    endloop
  endfacet
  facet normal 0 0 -1
    outer loop
      vertex 15.417 -9.215 0
      vertex 16.793 -10.759 0
      vertex 9.853 -9.913 0
    endloop
  endfacet
  facet normal 0 0 -1
    outer loop
      vertex 9.853 -9.913 0
      vertex 10.725 -14.419 0
      vertex 5.413 -12.907 0
    endloop
  endfacet
  facet normal 0 -0 -1
    outer loop
      vertex -14.004 -0.034 0
      vertex -19.525 -4.338 0
      vertex -12.905 5.405 0
    endloop
  endfacet
  facet normal 0 -0 -1
    outer loop
      vertex -17.444 -4.462 0
      vertex -19.525 -4.338 0
      vertex -14.004 -0.034 0
    endloop
  endfacet
  facet normal -0 0 -1
    outer loop
      vertex 9.853 9.849 0
      vertex 14.359 10.725 0
      vertex 18.054 8.423 0
    endloop
  endfacet
  facet normal 0 0 -1
    outer loop
      vertex 9.853 9.849 0
      vertex 18.054 8.423 0
      vertex 16.476 7.056 0
    endloop
  endfacet
  facet normal 0 0 -1
    outer loop
      vertex -9.909 -9.913 0
      vertex -5.466 -12.907 0
      vertex 4.269 -19.525 0
    endloop
  endfacet
  facet normal -0 0 -1
    outer loop
      vertex 14.359 10.725 0
      vertex 16.326 11.404 0
      vertex 18.054 8.423 0
    endloop
  endfacet
  facet normal 0 0 -1
    outer loop
      vertex -0.026 13.944 0
      vertex 6.783 18.733 0
      vertex 6.633 16.652 0
    endloop
  endfacet
  facet normal 0 0 -1
    outer loop
      vertex -5.466 12.845 0
      vertex -0.255 17.931 0
      vertex 2.55 17.746 0
    endloop
  endfacet
  facet normal 0 0 -1
    outer loop
      vertex -9.909 9.849 0
      vertex -4.453 17.384 0
      vertex -1.058 19.906 0
    endloop
  endfacet
  facet normal 0 0 -1
    outer loop
      vertex -9.909 9.849 0
      vertex -1.058 19.906 0
      vertex -0.908 19.906 0
    endloop
  endfacet
  facet normal 0 0 -1
    outer loop
      vertex 9.853 -9.913 0
      vertex 12.824 -12.567 0
      vertex 10.725 -14.419 0
    endloop
  endfacet
  facet normal 0 0 -1
    outer loop
      vertex 12.847 -5.473 0
      vertex 15.417 -9.215 0
      vertex 9.853 -9.913 0
    endloop
  endfacet
  facet normal 0 0 -1
    outer loop
      vertex 5.413 -12.907 0
      vertex 7.056 -16.544 0
      vertex -0.026 -14.004 0
    endloop
  endfacet
  facet normal -0 0 -1
    outer loop
      vertex 2.55 17.746 0
      vertex 6.783 18.733 0
      vertex -0.026 13.944 0
    endloop
  endfacet
  facet normal 0 0 -1
    outer loop
      vertex -0.026 13.944 0
      vertex 6.633 16.652 0
      vertex 9.147 15.408 0
    endloop
  endfacet
  facet normal -0 0 -1
    outer loop
      vertex 5.413 12.845 0
      vertex 13.45 14.685 0
      vertex 12.516 12.824 0
    endloop
  endfacet
  facet normal 0 0 -1
    outer loop
      vertex -19.525 -4.338 0
      vertex -7.116 16.476 0
      vertex -9.909 9.849 0
    endloop
  endfacet
  facet normal 0 0 -1
    outer loop
      vertex -19.525 -4.338 0
      vertex -9.909 9.849 0
      vertex -12.905 5.405 0
    endloop
  endfacet
  facet normal 0 0 -1
    outer loop
      vertex -16.536 -7.125 0
      vertex -12.576 -12.893 0
      vertex -14.428 -10.785 0
    endloop
  endfacet
  facet normal 0 0 -1
    outer loop
      vertex -16.536 -7.125 0
      vertex -14.428 -10.785 0
      vertex -16.386 -11.464 0
    endloop
  endfacet
  facet normal 0 0 -1
    outer loop
      vertex -16.536 -7.125 0
      vertex -16.386 -11.464 0
      vertex -18.114 -8.492 0
    endloop
  endfacet
  facet normal 0 0 -1
    outer loop
      vertex -0.026 -14.004 0
      vertex 4.393 -17.453 0
      vertex -5.466 -12.907 0
    endloop
  endfacet
  facet normal 0 0 -1
    outer loop
      vertex -9.909 -9.913 0
      vertex 4.269 -19.525 0
      vertex 0.195 -17.991 0
    endloop
  endfacet
  facet normal 0 0 -1
    outer loop
      vertex -17.444 -4.462 0
      vertex -9.909 -9.913 0
      vertex 0.195 -17.991 0
    endloop
  endfacet
  facet normal 0 0 -1
    outer loop
      vertex -17.444 -4.462 0
      vertex 0.195 -17.991 0
      vertex -2.601 -17.806 0
    endloop
  endfacet
  facet normal 0 0 -1
    outer loop
      vertex -17.444 -4.462 0
      vertex -2.601 -17.806 0
      vertex -16.536 -7.125 0
    endloop
  endfacet
  facet normal 0 0 -1
    outer loop
      vertex 12.847 5.405 0
      vertex 17.384 4.393 0
      vertex 19.906 0.848 0
    endloop
  endfacet
  facet normal 0 0 -1
    outer loop
      vertex 12.847 5.405 0
      vertex 19.906 0.848 0
      vertex 13.944 -0.034 0
    endloop
  endfacet
  facet normal 0 0 -1
    outer loop
      vertex 17.746 -2.601 0
      vertex 19.624 -3.509 0
      vertex 12.847 -5.473 0
    endloop
  endfacet
  facet normal 0 0 -1
    outer loop
      vertex 13.944 -0.034 0
      vertex 17.746 -2.601 0
      vertex 12.847 -5.473 0
    endloop
  endfacet
  facet normal -0.313486 0.949593 0
    outer loop
      vertex -19.966 -0.916 0
      vertex -19.966 -0.916 99.966
      vertex -17.991 -0.264 0
    endloop
  endfacet
  facet normal -0.313486 0.949593 0
    outer loop
      vertex -17.991 -0.264 0
      vertex -19.966 -0.916 99.966
      vertex -17.991 -0.264 97.991
    endloop
  endfacet
  facet normal 0.707107 -2.39819e-15 0.707107
    outer loop
      vertex -14.428 -10.785 94.428
      vertex -17.444 -4.462 97.444
      vertex -16.536 -7.125 96.536
    endloop
  endfacet
  facet normal 0.707107 6.17084e-16 0.707107
    outer loop
      vertex -12.576 -12.893 92.576
      vertex -9.207 -15.477 89.207
      vertex -17.444 -4.462 97.444
    endloop
  endfacet
  facet normal 0.707107 1.17995e-15 0.707107
    outer loop
      vertex -18.114 -8.492 98.114
      vertex -16.386 -11.464 96.386
      vertex -16.536 -7.125 96.536
    endloop
  endfacet
  facet normal 0.707107 1.12278e-15 0.707107
    outer loop
      vertex -16.386 -11.464 96.386
      vertex -14.428 -10.785 94.428
      vertex -16.536 -7.125 96.536
    endloop
  endfacet
  facet normal 0.707107 -6.16406e-15 0.707107
    outer loop
      vertex -6.693 -16.721 86.693
      vertex -3.509 -19.684 83.509
      vertex -17.444 -4.462 97.444
    endloop
  endfacet
  facet normal 0.707107 4.25134e-15 0.707107
    outer loop
      vertex -14.428 -10.785 94.428
      vertex -12.576 -12.893 92.576
      vertex -17.444 -4.462 97.444
    endloop
  endfacet
  facet normal 0.707107 -4.19146e-17 0.707107
    outer loop
      vertex -13.511 -14.754 93.511
      vertex -10.759 -16.862 90.759
      vertex -12.576 -12.893 92.576
    endloop
  endfacet
  facet normal 0.707107 -1.9242e-15 0.707107
    outer loop
      vertex -10.759 -16.862 90.759
      vertex -9.207 -15.477 89.207
      vertex -12.576 -12.893 92.576
    endloop
  endfacet
  facet normal 0.707107 -2.50199e-15 0.707107
    outer loop
      vertex -2.601 -17.806 82.601
      vertex 0.195 -17.991 79.805
      vertex -17.444 -4.462 97.444
    endloop
  endfacet
  facet normal 0.707107 3.95853e-15 0.707107
    outer loop
      vertex -9.207 -15.477 89.207
      vertex -6.693 -16.721 86.693
      vertex -17.444 -4.462 97.444
    endloop
  endfacet
  facet normal 0.707107 2.32184e-15 0.707107
    outer loop
      vertex -6.843 -18.802 86.843
      vertex -3.509 -19.684 83.509
      vertex -6.693 -16.721 86.693
    endloop
  endfacet
  facet normal 0.707107 -5.68566e-17 0.707107
    outer loop
      vertex -3.509 -19.684 83.509
      vertex -2.601 -17.806 82.601
      vertex -17.444 -4.462 97.444
    endloop
  endfacet
  facet normal 0.707107 -1.43518e-15 0.707107
    outer loop
      vertex 0.847 -19.966 79.153
      vertex 4.269 -19.525 75.731
      vertex 0.195 -17.991 79.805
    endloop
  endfacet
  facet normal 0.707107 3.24589e-15 0.707107
    outer loop
      vertex -0.026 -14.004 80.026
      vertex 4.269 -19.525 75.731
      vertex 4.393 -17.453 75.607
    endloop
  endfacet
  facet normal 0.707107 -8.78171e-16 0.707107
    outer loop
      vertex 5.413 -12.907 74.587
      vertex 7.056 -16.544 72.944
      vertex 11.413 -16.395 68.587
    endloop
  endfacet
  facet normal 0.707107 2.6402e-15 0.707107
    outer loop
      vertex 8.415 -18.123 71.585
      vertex 11.413 -16.395 68.587
      vertex 7.056 -16.544 72.944
    endloop
  endfacet
  facet normal 0.707107 2.82964e-15 0.707107
    outer loop
      vertex 14.703 -13.511 65.297
      vertex 16.793 -10.759 63.207
      vertex 12.824 -12.567 67.176
    endloop
  endfacet
  facet normal 0.707107 0 0.707107
    outer loop
      vertex 18.742 -6.852 61.258
      vertex 19.624 -3.509 60.376
      vertex 16.652 -6.702 63.348
    endloop
  endfacet
  facet normal 0.707107 4.96584e-16 0.707107
    outer loop
      vertex -14.004 -0.034 94.004
      vertex -12.905 5.405 92.905
      vertex -19.525 -4.338 99.525
    endloop
  endfacet
  facet normal 0.707107 -5.6082e-16 0.707107
    outer loop
      vertex 5.413 12.845 74.587
      vertex 9.853 9.849 70.147
      vertex 12.516 12.824 67.484
    endloop
  endfacet
  facet normal 0.707107 -3.9224e-16 0.707107
    outer loop
      vertex 9.853 9.849 70.147
      vertex 16.476 7.056 63.524
      vertex 18.054 8.423 61.946
    endloop
  endfacet
  facet normal 0.707107 2.43525e-15 0.707107
    outer loop
      vertex -0.026 13.944 80.026
      vertex 6.633 16.652 73.367
      vertex 6.783 18.733 73.217
    endloop
  endfacet
  facet normal 0.707107 0 0.707107
    outer loop
      vertex -0.026 13.944 80.026
      vertex 9.147 15.408 70.853
      vertex 6.633 16.652 73.367
    endloop
  endfacet
  facet normal 0.707107 1.80291e-15 0.707107
    outer loop
      vertex -9.909 9.849 89.909
      vertex -7.116 16.476 87.116
      vertex -19.525 -4.338 99.525
    endloop
  endfacet
  facet normal 0.707107 3.07602e-15 0.707107
    outer loop
      vertex 13.45 14.685 66.55
      vertex 10.708 16.793 69.292
      vertex 9.147 15.408 70.853
    endloop
  endfacet
  facet normal 0.707107 1.56866e-15 0.707107
    outer loop
      vertex -9.909 9.849 89.909
      vertex -5.466 12.845 85.466
      vertex -0.908 19.906 80.908
    endloop
  endfacet
  facet normal 0.707107 -1.20615e-13 0.707107
    outer loop
      vertex -9.909 9.849 89.909
      vertex -19.525 -4.338 99.525
      vertex -12.905 5.405 92.905
    endloop
  endfacet
  facet normal 0.707107 9.97159e-16 0.707107
    outer loop
      vertex 6.783 18.733 73.217
      vertex 3.458 19.624 76.542
      vertex 2.55 17.746 77.45
    endloop
  endfacet
  facet normal 0.707107 -1.77625e-15 0.707107
    outer loop
      vertex -7.116 16.476 87.116
      vertex -8.475 18.054 88.475
      vertex -19.525 -4.338 99.525
    endloop
  endfacet
  facet normal 0.707107 -3.15808e-14 0.707107
    outer loop
      vertex -9.909 9.849 89.909
      vertex -0.908 19.906 80.908
      vertex -1.058 19.906 81.058
    endloop
  endfacet
  facet normal 0.707107 2.12641e-14 0.707107
    outer loop
      vertex -12.893 12.507 92.893
      vertex -17.991 -0.264 97.991
      vertex -19.525 -4.338 99.525
    endloop
  endfacet
  facet normal 0.707107 2.68675e-15 0.707107
    outer loop
      vertex -9.909 9.849 89.909
      vertex -1.058 19.906 81.058
      vertex -4.453 17.384 84.453
    endloop
  endfacet
  facet normal 0.707107 1.47352e-15 0.707107
    outer loop
      vertex -1.058 19.906 81.058
      vertex -4.33 19.465 84.33
      vertex -4.453 17.384 84.453
    endloop
  endfacet
  facet normal 0.707107 -1.35473e-15 0.707107
    outer loop
      vertex -8.475 18.054 88.475
      vertex -10.785 14.359 90.785
      vertex -19.525 -4.338 99.525
    endloop
  endfacet
  facet normal 0.707107 2.88751e-15 0.707107
    outer loop
      vertex -8.475 18.054 88.475
      vertex -11.464 16.326 91.464
      vertex -10.785 14.359 90.785
    endloop
  endfacet
  facet normal 0.707107 2.58463e-15 0.707107
    outer loop
      vertex -10.785 14.359 90.785
      vertex -12.893 12.507 92.893
      vertex -19.525 -4.338 99.525
    endloop
  endfacet
  facet normal 0.707107 1.36329e-15 0.707107
    outer loop
      vertex -19.684 3.44 99.684
      vertex -17.806 2.532 97.806
      vertex -18.802 6.783 98.802
    endloop
  endfacet
  facet normal 0.707107 1.21851e-15 0.707107
    outer loop
      vertex 14.359 10.725 65.641
      vertex 18.054 8.423 61.946
      vertex 16.326 11.404 63.674
    endloop
  endfacet
  facet normal 0.707107 1.51148e-15 0.707107
    outer loop
      vertex -16.712 6.633 96.712
      vertex -18.802 6.783 98.802
      vertex -17.806 2.532 97.806
    endloop
  endfacet
  facet normal 0.707107 -2.32774e-15 0.707107
    outer loop
      vertex 9.853 9.849 70.147
      vertex 18.054 8.423 61.946
      vertex 14.359 10.725 65.641
    endloop
  endfacet
  facet normal 0.707107 4.08174e-15 0.707107
    outer loop
      vertex -17.806 2.532 97.806
      vertex -15.477 9.147 95.477
      vertex -16.712 6.633 96.712
    endloop
  endfacet
  facet normal 0.707107 -2.31156e-16 0.707107
    outer loop
      vertex -17.991 -0.264 97.991
      vertex -19.966 -0.916 99.966
      vertex -19.525 -4.338 99.525
    endloop
  endfacet
  facet normal 0.707107 -4.68939e-15 0.707107
    outer loop
      vertex -17.806 2.532 97.806
      vertex -17.991 -0.264 97.991
      vertex -15.477 9.147 95.477
    endloop
  endfacet
  facet normal 0.707107 -7.51846e-16 0.707107
    outer loop
      vertex -16.862 10.699 96.862
      vertex -15.477 9.147 95.477
      vertex -14.754 13.442 94.754
    endloop
  endfacet
  facet normal 0.707107 -7.3875e-16 0.707107
    outer loop
      vertex 5.413 12.845 74.587
      vertex 13.45 14.685 66.55
      vertex 9.147 15.408 70.853
    endloop
  endfacet
  facet normal 0.707107 -8.06754e-16 0.707107
    outer loop
      vertex -12.893 12.507 92.893
      vertex -15.477 9.147 95.477
      vertex -17.991 -0.264 97.991
    endloop
  endfacet
  facet normal 0.707107 3.66091e-16 0.707107
    outer loop
      vertex -0.026 13.944 80.026
      vertex 5.413 12.845 74.587
      vertex 9.147 15.408 70.853
    endloop
  endfacet
  facet normal 0.707107 -6.13417e-16 0.707107
    outer loop
      vertex -12.893 12.507 92.893
      vertex -14.754 13.442 94.754
      vertex -15.477 9.147 95.477
    endloop
  endfacet
  facet normal 0.707107 1.22573e-15 0.707107
    outer loop
      vertex 9.853 9.849 70.147
      vertex 12.847 5.405 67.153
      vertex 16.476 7.056 63.524
    endloop
  endfacet
  facet normal 0.707107 1.91833e-15 0.707107
    outer loop
      vertex -0.255 17.931 80.255
      vertex -0.908 19.906 80.908
      vertex -5.466 12.845 85.466
    endloop
  endfacet
  facet normal 0.707107 -2.41725e-15 0.707107
    outer loop
      vertex 6.783 18.733 73.217
      vertex 2.55 17.746 77.45
      vertex -0.026 13.944 80.026
    endloop
  endfacet
  facet normal 0.707107 -9.93629e-16 0.707107
    outer loop
      vertex -5.466 12.845 85.466
      vertex 2.55 17.746 77.45
      vertex -0.255 17.931 80.255
    endloop
  endfacet
  facet normal 0.707107 1.32728e-15 0.707107
    outer loop
      vertex -4.453 17.384 84.453
      vertex -7.116 16.476 87.116
      vertex -9.909 9.849 89.909
    endloop
  endfacet
  facet normal 0.707107 -4.31868e-16 0.707107
    outer loop
      vertex 14.359 10.725 65.641
      vertex 12.516 12.824 67.484
      vertex 9.853 9.849 70.147
    endloop
  endfacet
  facet normal 0.707107 3.98088e-16 0.707107
    outer loop
      vertex 17.384 4.393 62.616
      vertex 16.476 7.056 63.524
      vertex 12.847 5.405 67.153
    endloop
  endfacet
  facet normal 0.707107 -4.64077e-15 0.707107
    outer loop
      vertex 17.931 0.195 62.069
      vertex 19.906 0.848 60.094
      vertex 13.944 -0.034 66.056
    endloop
  endfacet
  facet normal 0.707107 -9.35055e-16 0.707107
    outer loop
      vertex 16.652 -6.702 63.348
      vertex 19.624 -3.509 60.376
      vertex 12.847 -5.473 67.153
    endloop
  endfacet
  facet normal 0.707107 -6.22022e-16 0.707107
    outer loop
      vertex 12.824 -12.567 67.176
      vertex 16.793 -10.759 63.207
      vertex 9.853 -9.913 70.147
    endloop
  endfacet
  facet normal 0.707107 2.83494e-15 0.707107
    outer loop
      vertex -0.026 -14.004 80.026
      vertex -5.466 -12.907 85.466
      vertex 4.269 -19.525 75.731
    endloop
  endfacet
  facet normal 0.707107 0 0.707107
    outer loop
      vertex 11.413 -16.395 68.587
      vertex 10.725 -14.419 69.275
      vertex 5.413 -12.907 74.587
    endloop
  endfacet
  facet normal 0.707107 -8.12861e-16 0.707107
    outer loop
      vertex 4.393 -17.453 75.607
      vertex 7.056 -16.544 72.944
      vertex -0.026 -14.004 80.026
    endloop
  endfacet
  facet normal 0.707107 0 0.707107
    outer loop
      vertex 0.195 -17.991 79.805
      vertex 4.269 -19.525 75.731
      vertex -5.466 -12.907 85.466
    endloop
  endfacet
  facet normal 0.707107 -4.21796e-15 0.707107
    outer loop
      vertex 0.195 -17.991 79.805
      vertex -9.909 -9.913 89.909
      vertex -17.444 -4.462 97.444
    endloop
  endfacet
  facet normal 0.707107 -1.42124e-15 0.707107
    outer loop
      vertex 0.195 -17.991 79.805
      vertex -5.466 -12.907 85.466
      vertex -9.909 -9.913 89.909
    endloop
  endfacet
  facet normal 0.707107 -9.68375e-16 0.707107
    outer loop
      vertex 5.413 -12.907 74.587
      vertex -0.026 -14.004 80.026
      vertex 7.056 -16.544 72.944
    endloop
  endfacet
  facet normal 0.707107 9.11002e-16 0.707107
    outer loop
      vertex -9.909 -9.913 89.909
      vertex -12.905 -5.473 92.905
      vertex -17.444 -4.462 97.444
    endloop
  endfacet
  facet normal 0.707107 -2.54314e-15 0.707107
    outer loop
      vertex -5.466 12.845 85.466
      vertex -0.026 13.944 80.026
      vertex 2.55 17.746 77.45
    endloop
  endfacet
  facet normal 0.707107 0 0.707107
    outer loop
      vertex 5.413 12.845 74.587
      vertex 12.516 12.824 67.484
      vertex 13.45 14.685 66.55
    endloop
  endfacet
  facet normal 0.707107 1.75709e-16 0.707107
    outer loop
      vertex 12.847 5.405 67.153
      vertex 13.944 -0.034 66.056
      vertex 19.906 0.848 60.094
    endloop
  endfacet
  facet normal 0.707107 8.67282e-16 0.707107
    outer loop
      vertex 12.847 5.405 67.153
      vertex 19.906 0.848 60.094
      vertex 17.384 4.393 62.616
    endloop
  endfacet
  facet normal 0.707107 0 0.707107
    outer loop
      vertex 17.384 4.393 62.616
      vertex 19.906 0.848 60.094
      vertex 19.465 4.269 60.535
    endloop
  endfacet
  facet normal 0.707107 -9.58087e-16 0.707107
    outer loop
      vertex 12.847 -5.473 67.153
      vertex 9.853 -9.913 70.147
      vertex 15.417 -9.215 64.583
    endloop
  endfacet
  facet normal 0.707107 -2.47114e-16 0.707107
    outer loop
      vertex 13.944 -0.034 66.056
      vertex 12.847 -5.473 67.153
      vertex 17.746 -2.601 62.254
    endloop
  endfacet
  facet normal 0.707107 9.57196e-16 0.707107
    outer loop
      vertex 17.746 -2.601 62.254
      vertex 12.847 -5.473 67.153
      vertex 19.624 -3.509 60.376
    endloop
  endfacet
  facet normal 0.707107 -1.12372e-16 0.707107
    outer loop
      vertex 13.944 -0.034 66.056
      vertex 17.746 -2.601 62.254
      vertex 17.931 0.195 62.069
    endloop
  endfacet
  facet normal 0.707107 3.8168e-16 0.707107
    outer loop
      vertex 15.417 -9.215 64.583
      vertex 9.853 -9.913 70.147
      vertex 16.793 -10.759 63.207
    endloop
  endfacet
  facet normal 0.707107 -6.15495e-16 0.707107
    outer loop
      vertex 12.847 -5.473 67.153
      vertex 15.417 -9.215 64.583
      vertex 16.652 -6.702 63.348
    endloop
  endfacet
  facet normal 0.707107 0 0.707107
    outer loop
      vertex 9.853 -9.913 70.147
      vertex 5.413 -12.907 74.587
      vertex 10.725 -14.419 69.275
    endloop
  endfacet
  facet normal 0.707107 1.79937e-16 0.707107
    outer loop
      vertex 9.853 -9.913 70.147
      vertex 10.725 -14.419 69.275
      vertex 12.824 -12.567 67.176
    endloop
  endfacet
  facet normal 0.707107 -1.11757e-15 0.707107
    outer loop
      vertex -17.444 -4.462 97.444
      vertex -14.004 -0.034 94.004
      vertex -19.525 -4.338 99.525
    endloop
  endfacet
  facet normal 0.707107 -4.18642e-16 0.707107
    outer loop
      vertex -12.905 -5.473 92.905
      vertex -14.004 -0.034 94.004
      vertex -17.444 -4.462 97.444
    endloop
  endfacet
  facet normal -0.0594812 -0.998229 0
    outer loop
      vertex -19.525 -4.338 99.525
      vertex -19.525 -4.338 0
      vertex -17.444 -4.462 0
    endloop
  endfacet
  facet normal -0.0594812 -0.998229 0
    outer loop
      vertex -17.444 -4.462 97.444
      vertex -19.525 -4.338 99.525
      vertex -17.444 -4.462 0
    endloop
  endfacet
  facet normal -0.946493 -0.322725 -0
    outer loop
      vertex -17.444 -4.462 0
      vertex -16.536 -7.125 0
      vertex -17.444 -4.462 97.444
    endloop
  endfacet
  facet normal -0.946493 -0.322725 0
    outer loop
      vertex -17.444 -4.462 97.444
      vertex -16.536 -7.125 0
      vertex -16.536 -7.125 96.536
    endloop
  endfacet
  facet normal -0.654766 0.755831 0
    outer loop
      vertex -18.114 -8.492 0
      vertex -18.114 -8.492 98.114
      vertex -16.536 -7.125 0
    endloop
  endfacet
  facet normal -0.654766 0.755831 0
    outer loop
      vertex -16.536 -7.125 0
      vertex -18.114 -8.492 98.114
      vertex -16.536 -7.125 96.536
    endloop
  endfacet
  facet normal -0.864495 -0.502641 -0
    outer loop
      vertex -18.114 -8.492 0
      vertex -16.386 -11.464 0
      vertex -18.114 -8.492 98.114
    endloop
  endfacet
  facet normal -0.864495 -0.502641 0
    outer loop
      vertex -18.114 -8.492 98.114
      vertex -16.386 -11.464 0
      vertex -16.386 -11.464 96.386
    endloop
  endfacet
  facet normal 0.327641 -0.944802 0
    outer loop
      vertex -16.386 -11.464 96.386
      vertex -16.386 -11.464 0
      vertex -14.428 -10.785 0
    endloop
  endfacet
  facet normal 0.327641 -0.944802 0
    outer loop
      vertex -14.428 -10.785 94.428
      vertex -16.386 -11.464 96.386
      vertex -14.428 -10.785 0
    endloop
  endfacet
  facet normal -0.751251 -0.660017 -0
    outer loop
      vertex -14.428 -10.785 0
      vertex -12.576 -12.893 0
      vertex -14.428 -10.785 94.428
    endloop
  endfacet
  facet normal -0.751251 -0.660017 0
    outer loop
      vertex -14.428 -10.785 94.428
      vertex -12.576 -12.893 0
      vertex -12.576 -12.893 92.576
    endloop
  endfacet
  facet normal -0.893561 0.448941 0
    outer loop
      vertex -13.511 -14.754 0
      vertex -13.511 -14.754 93.511
      vertex -12.576 -12.893 0
    endloop
  endfacet
  facet normal -0.893561 0.448941 0
    outer loop
      vertex -12.576 -12.893 0
      vertex -13.511 -14.754 93.511
      vertex -12.576 -12.893 92.576
    endloop
  endfacet
  facet normal -0.608092 -0.793866 0
    outer loop
      vertex -13.511 -14.754 93.511
      vertex -13.511 -14.754 0
      vertex -10.759 -16.862 0
    endloop
  endfacet
  facet normal -0.608092 -0.793866 0
    outer loop
      vertex -10.759 -16.862 90.759
      vertex -13.511 -14.754 93.511
      vertex -10.759 -16.862 0
    endloop
  endfacet
  facet normal 0.665825 -0.746108 0
    outer loop
      vertex -10.759 -16.862 90.759
      vertex -10.759 -16.862 0
      vertex -9.207 -15.477 0
    endloop
  endfacet
  facet normal 0.665825 -0.746108 0
    outer loop
      vertex -9.207 -15.477 89.207
      vertex -10.759 -16.862 90.759
      vertex -9.207 -15.477 0
    endloop
  endfacet
  facet normal -0.443502 -0.896273 0
    outer loop
      vertex -9.207 -15.477 89.207
      vertex -9.207 -15.477 0
      vertex -6.693 -16.721 0
    endloop
  endfacet
  facet normal -0.443502 -0.896273 0
    outer loop
      vertex -6.693 -16.721 86.693
      vertex -9.207 -15.477 89.207
      vertex -6.693 -16.721 0
    endloop
  endfacet
  facet normal -0.997412 0.0718942 0
    outer loop
      vertex -6.843 -18.802 0
      vertex -6.843 -18.802 86.843
      vertex -6.693 -16.721 0
    endloop
  endfacet
  facet normal -0.997412 0.0718942 0
    outer loop
      vertex -6.693 -16.721 0
      vertex -6.843 -18.802 86.843
      vertex -6.693 -16.721 86.693
    endloop
  endfacet
  facet normal -0.255749 -0.966743 0
    outer loop
      vertex -6.843 -18.802 86.843
      vertex -6.843 -18.802 0
      vertex -3.509 -19.684 0
    endloop
  endfacet
  facet normal -0.255749 -0.966743 0
    outer loop
      vertex -3.509 -19.684 83.509
      vertex -6.843 -18.802 86.843
      vertex -3.509 -19.684 0
    endloop
  endfacet
  facet normal 0.900293 -0.435285 0
    outer loop
      vertex -3.509 -19.684 83.509
      vertex -3.509 -19.684 0
      vertex -2.601 -17.806 0
    endloop
  endfacet
  facet normal 0.900293 -0.435285 0
    outer loop
      vertex -2.601 -17.806 82.601
      vertex -3.509 -19.684 83.509
      vertex -2.601 -17.806 0
    endloop
  endfacet
  facet normal -0.0660216 -0.997818 0
    outer loop
      vertex -2.601 -17.806 82.601
      vertex -2.601 -17.806 0
      vertex 0.195 -17.991 0
    endloop
  endfacet
  facet normal -0.0660216 -0.997818 0
    outer loop
      vertex 0.195 -17.991 79.805
      vertex -2.601 -17.806 82.601
      vertex 0.195 -17.991 0
    endloop
  endfacet
  facet normal -0.949593 -0.313486 -0
    outer loop
      vertex 0.195 -17.991 0
      vertex 0.847 -19.966 0
      vertex 0.195 -17.991 79.805
    endloop
  endfacet
  facet normal -0.949593 -0.313486 0
    outer loop
      vertex 0.195 -17.991 79.805
      vertex 0.847 -19.966 0
      vertex 0.847 -19.966 79.153
    endloop
  endfacet
  facet normal 0.127815 -0.991798 0
    outer loop
      vertex 0.847 -19.966 79.153
      vertex 0.847 -19.966 0
      vertex 4.269 -19.525 0
    endloop
  endfacet
  facet normal 0.127815 -0.991798 0
    outer loop
      vertex 4.269 -19.525 75.731
      vertex 0.847 -19.966 79.153
      vertex 4.269 -19.525 0
    endloop
  endfacet
  facet normal 0.998214 -0.0597387 0
    outer loop
      vertex 4.269 -19.525 75.731
      vertex 4.269 -19.525 0
      vertex 4.393 -17.453 0
    endloop
  endfacet
  facet normal 0.998214 -0.0597387 0
    outer loop
      vertex 4.393 -17.453 75.607
      vertex 4.269 -19.525 75.731
      vertex 4.393 -17.453 0
    endloop
  endfacet
  facet normal 0.323043 -0.946384 0
    outer loop
      vertex 4.393 -17.453 75.607
      vertex 4.393 -17.453 0
      vertex 7.056 -16.544 0
    endloop
  endfacet
  facet normal 0.323043 -0.946384 0
    outer loop
      vertex 7.056 -16.544 72.944
      vertex 4.393 -17.453 75.607
      vertex 7.056 -16.544 0
    endloop
  endfacet
  facet normal -0.757934 -0.652332 -0
    outer loop
      vertex 7.056 -16.544 0
      vertex 8.415 -18.123 0
      vertex 7.056 -16.544 72.944
    endloop
  endfacet
  facet normal -0.757934 -0.652332 0
    outer loop
      vertex 7.056 -16.544 72.944
      vertex 8.415 -18.123 0
      vertex 8.415 -18.123 71.585
    endloop
  endfacet
  facet normal 0.499372 -0.866388 0
    outer loop
      vertex 8.415 -18.123 71.585
      vertex 8.415 -18.123 0
      vertex 11.413 -16.395 0
    endloop
  endfacet
  facet normal 0.499372 -0.866388 0
    outer loop
      vertex 11.413 -16.395 68.587
      vertex 8.415 -18.123 71.585
      vertex 11.413 -16.395 0
    endloop
  endfacet
  facet normal 0.944394 0.328817 0
    outer loop
      vertex 11.413 -16.395 0
      vertex 10.725 -14.419 0
      vertex 10.725 -14.419 69.275
    endloop
  endfacet
  facet normal 0.944394 0.328817 -0
    outer loop
      vertex 11.413 -16.395 68.587
      vertex 11.413 -16.395 0
      vertex 10.725 -14.419 69.275
    endloop
  endfacet
  facet normal 0.66161 -0.749848 0
    outer loop
      vertex 10.725 -14.419 69.275
      vertex 10.725 -14.419 0
      vertex 12.824 -12.567 0
    endloop
  endfacet
  facet normal 0.66161 -0.749848 0
    outer loop
      vertex 12.824 -12.567 67.176
      vertex 10.725 -14.419 69.275
      vertex 12.824 -12.567 0
    endloop
  endfacet
  facet normal -0.448925 -0.89357 0
    outer loop
      vertex 12.824 -12.567 67.176
      vertex 12.824 -12.567 0
      vertex 14.703 -13.511 0
    endloop
  endfacet
  facet normal -0.448925 -0.89357 0
    outer loop
      vertex 14.703 -13.511 65.297
      vertex 12.824 -12.567 67.176
      vertex 14.703 -13.511 0
    endloop
  endfacet
  facet normal 0.796374 -0.604804 0
    outer loop
      vertex 14.703 -13.511 65.297
      vertex 14.703 -13.511 0
      vertex 16.793 -10.759 0
    endloop
  endfacet
  facet normal 0.796374 -0.604804 0
    outer loop
      vertex 16.793 -10.759 63.207
      vertex 14.703 -13.511 65.297
      vertex 16.793 -10.759 0
    endloop
  endfacet
  facet normal 0.746555 0.665324 0
    outer loop
      vertex 16.793 -10.759 0
      vertex 15.417 -9.215 0
      vertex 15.417 -9.215 64.583
    endloop
  endfacet
  facet normal 0.746555 0.665324 -0
    outer loop
      vertex 16.793 -10.759 63.207
      vertex 16.793 -10.759 0
      vertex 15.417 -9.215 64.583
    endloop
  endfacet
  facet normal 0.897477 -0.44106 0
    outer loop
      vertex 15.417 -9.215 64.583
      vertex 15.417 -9.215 0
      vertex 16.652 -6.702 0
    endloop
  endfacet
  facet normal 0.897477 -0.44106 0
    outer loop
      vertex 16.652 -6.702 63.348
      vertex 15.417 -9.215 64.583
      vertex 16.652 -6.702 0
    endloop
  endfacet
  facet normal -0.0715862 -0.997434 0
    outer loop
      vertex 16.652 -6.702 63.348
      vertex 16.652 -6.702 0
      vertex 18.742 -6.852 0
    endloop
  endfacet
  facet normal -0.0715862 -0.997434 0
    outer loop
      vertex 18.742 -6.852 61.258
      vertex 16.652 -6.702 63.348
      vertex 18.742 -6.852 0
    endloop
  endfacet
  facet normal 0.966913 -0.255105 0
    outer loop
      vertex 18.742 -6.852 61.258
      vertex 18.742 -6.852 0
      vertex 19.624 -3.509 0
    endloop
  endfacet
  facet normal 0.966913 -0.255105 0
    outer loop
      vertex 19.624 -3.509 60.376
      vertex 18.742 -6.852 61.258
      vertex 19.624 -3.509 0
    endloop
  endfacet
  facet normal 0.435285 0.900293 0
    outer loop
      vertex 17.746 -2.601 0
      vertex 17.746 -2.601 62.254
      vertex 19.624 -3.509 0
    endloop
  endfacet
  facet normal 0.435285 0.900293 0
    outer loop
      vertex 19.624 -3.509 0
      vertex 17.746 -2.601 62.254
      vertex 19.624 -3.509 60.376
    endloop
  endfacet
  facet normal 0.997818 -0.0660216 0
    outer loop
      vertex 17.746 -2.601 62.254
      vertex 17.746 -2.601 0
      vertex 17.931 0.195 0
    endloop
  endfacet
  facet normal 0.997818 -0.0660216 0
    outer loop
      vertex 17.931 0.195 62.069
      vertex 17.746 -2.601 62.254
      vertex 17.931 0.195 0
    endloop
  endfacet
  facet normal 0.313919 -0.94945 0
    outer loop
      vertex 17.931 0.195 62.069
      vertex 17.931 0.195 0
      vertex 19.906 0.848 0
    endloop
  endfacet
  facet normal 0.313919 -0.94945 0
    outer loop
      vertex 19.906 0.848 60.094
      vertex 17.931 0.195 62.069
      vertex 19.906 0.848 0
    endloop
  endfacet
  facet normal 0.991793 0.127852 0
    outer loop
      vertex 19.906 0.848 0
      vertex 19.465 4.269 0
      vertex 19.465 4.269 60.535
    endloop
  endfacet
  facet normal 0.991793 0.127852 -0
    outer loop
      vertex 19.906 0.848 60.094
      vertex 19.906 0.848 0
      vertex 19.465 4.269 60.535
    endloop
  endfacet
  facet normal 0.0594812 0.998229 0
    outer loop
      vertex 17.384 4.393 0
      vertex 17.384 4.393 62.616
      vertex 19.465 4.269 0
    endloop
  endfacet
  facet normal 0.0594812 0.998229 0
    outer loop
      vertex 19.465 4.269 0
      vertex 17.384 4.393 62.616
      vertex 19.465 4.269 60.535
    endloop
  endfacet
  facet normal 0.946493 0.322725 0
    outer loop
      vertex 17.384 4.393 0
      vertex 16.476 7.056 0
      vertex 16.476 7.056 63.524
    endloop
  endfacet
  facet normal 0.946493 0.322725 -0
    outer loop
      vertex 17.384 4.393 62.616
      vertex 17.384 4.393 0
      vertex 16.476 7.056 63.524
    endloop
  endfacet
  facet normal 0.654766 -0.755831 0
    outer loop
      vertex 16.476 7.056 63.524
      vertex 16.476 7.056 0
      vertex 18.054 8.423 0
    endloop
  endfacet
  facet normal 0.654766 -0.755831 0
    outer loop
      vertex 18.054 8.423 61.946
      vertex 16.476 7.056 63.524
      vertex 18.054 8.423 0
    endloop
  endfacet
  facet normal 0.865155 0.501505 0
    outer loop
      vertex 18.054 8.423 0
      vertex 16.326 11.404 0
      vertex 16.326 11.404 63.674
    endloop
  endfacet
  facet normal 0.865155 0.501505 -0
    outer loop
      vertex 18.054 8.423 61.946
      vertex 18.054 8.423 0
      vertex 16.326 11.404 63.674
    endloop
  endfacet
  facet normal -0.326302 0.945266 0
    outer loop
      vertex 14.359 10.725 0
      vertex 14.359 10.725 65.641
      vertex 16.326 11.404 0
    endloop
  endfacet
  facet normal -0.326302 0.945266 0
    outer loop
      vertex 16.326 11.404 0
      vertex 14.359 10.725 65.641
      vertex 16.326 11.404 63.674
    endloop
  endfacet
  facet normal 0.751445 0.659796 0
    outer loop
      vertex 14.359 10.725 0
      vertex 12.516 12.824 0
      vertex 12.516 12.824 67.484
    endloop
  endfacet
  facet normal 0.751445 0.659796 -0
    outer loop
      vertex 14.359 10.725 65.641
      vertex 14.359 10.725 0
      vertex 12.516 12.824 67.484
    endloop
  endfacet
  facet normal 0.893754 -0.448558 0
    outer loop
      vertex 12.516 12.824 67.484
      vertex 12.516 12.824 0
      vertex 13.45 14.685 0
    endloop
  endfacet
  facet normal 0.893754 -0.448558 0
    outer loop
      vertex 13.45 14.685 66.55
      vertex 12.516 12.824 67.484
      vertex 13.45 14.685 0
    endloop
  endfacet
  facet normal 0.609487 0.792796 0
    outer loop
      vertex 10.708 16.793 0
      vertex 10.708 16.793 69.292
      vertex 13.45 14.685 0
    endloop
  endfacet
  facet normal 0.609487 0.792796 0
    outer loop
      vertex 13.45 14.685 0
      vertex 10.708 16.793 69.292
      vertex 13.45 14.685 66.55
    endloop
  endfacet
  facet normal -0.663679 0.748017 0
    outer loop
      vertex 9.147 15.408 0
      vertex 9.147 15.408 70.853
      vertex 10.708 16.793 0
    endloop
  endfacet
  facet normal -0.663679 0.748017 0
    outer loop
      vertex 10.708 16.793 0
      vertex 9.147 15.408 70.853
      vertex 10.708 16.793 69.292
    endloop
  endfacet
  facet normal 0.443502 0.896273 0
    outer loop
      vertex 6.633 16.652 0
      vertex 6.633 16.652 73.367
      vertex 9.147 15.408 0
    endloop
  endfacet
  facet normal 0.443502 0.896273 0
    outer loop
      vertex 9.147 15.408 0
      vertex 6.633 16.652 73.367
      vertex 9.147 15.408 70.853
    endloop
  endfacet
  facet normal 0.997412 -0.0718942 0
    outer loop
      vertex 6.633 16.652 73.367
      vertex 6.633 16.652 0
      vertex 6.783 18.733 0
    endloop
  endfacet
  facet normal 0.997412 -0.0718942 0
    outer loop
      vertex 6.783 18.733 73.217
      vertex 6.633 16.652 73.367
      vertex 6.783 18.733 0
    endloop
  endfacet
  facet normal 0.258838 0.965921 0
    outer loop
      vertex 3.458 19.624 0
      vertex 3.458 19.624 76.542
      vertex 6.783 18.733 0
    endloop
  endfacet
  facet normal 0.258838 0.965921 0
    outer loop
      vertex 6.783 18.733 0
      vertex 3.458 19.624 76.542
      vertex 6.783 18.733 73.217
    endloop
  endfacet
  facet normal -0.900293 0.435285 0
    outer loop
      vertex 2.55 17.746 0
      vertex 2.55 17.746 77.45
      vertex 3.458 19.624 0
    endloop
  endfacet
  facet normal -0.900293 0.435285 0
    outer loop
      vertex 3.458 19.624 0
      vertex 2.55 17.746 77.45
      vertex 3.458 19.624 76.542
    endloop
  endfacet
  facet normal 0.0658107 0.997832 0
    outer loop
      vertex -0.255 17.931 0
      vertex -0.255 17.931 80.255
      vertex 2.55 17.746 0
    endloop
  endfacet
  facet normal 0.0658107 0.997832 0
    outer loop
      vertex 2.55 17.746 0
      vertex -0.255 17.931 80.255
      vertex 2.55 17.746 77.45
    endloop
  endfacet
  facet normal 0.94945 0.313919 0
    outer loop
      vertex -0.255 17.931 0
      vertex -0.908 19.906 0
      vertex -0.908 19.906 80.908
    endloop
  endfacet
  facet normal 0.94945 0.313919 -0
    outer loop
      vertex -0.255 17.931 80.255
      vertex -0.255 17.931 0
      vertex -0.908 19.906 80.908
    endloop
  endfacet
  facet normal 0 1 0
    outer loop
      vertex -1.058 19.906 0
      vertex -1.058 19.906 81.058
      vertex -0.908 19.906 0
    endloop
  endfacet
  facet normal 0 1 0
    outer loop
      vertex -0.908 19.906 0
      vertex -1.058 19.906 81.058
      vertex -0.908 19.906 80.908
    endloop
  endfacet
  facet normal -0.133572 0.991039 0
    outer loop
      vertex -4.33 19.465 0
      vertex -4.33 19.465 84.33
      vertex -1.058 19.906 0
    endloop
  endfacet
  facet normal -0.133572 0.991039 0
    outer loop
      vertex -1.058 19.906 0
      vertex -4.33 19.465 84.33
      vertex -1.058 19.906 81.058
    endloop
  endfacet
  facet normal -0.998258 0.0590032 0
    outer loop
      vertex -4.453 17.384 0
      vertex -4.453 17.384 84.453
      vertex -4.33 19.465 0
    endloop
  endfacet
  facet normal -0.998258 0.0590032 0
    outer loop
      vertex -4.33 19.465 0
      vertex -4.453 17.384 84.453
      vertex -4.33 19.465 84.33
    endloop
  endfacet
  facet normal -0.322725 0.946493 0
    outer loop
      vertex -7.116 16.476 0
      vertex -7.116 16.476 87.116
      vertex -4.453 17.384 0
    endloop
  endfacet
  facet normal -0.322725 0.946493 0
    outer loop
      vertex -4.453 17.384 0
      vertex -7.116 16.476 87.116
      vertex -4.453 17.384 84.453
    endloop
  endfacet
  facet normal 0.757729 0.652569 0
    outer loop
      vertex -7.116 16.476 0
      vertex -8.475 18.054 0
      vertex -8.475 18.054 88.475
    endloop
  endfacet
  facet normal 0.757729 0.652569 -0
    outer loop
      vertex -7.116 16.476 87.116
      vertex -7.116 16.476 0
      vertex -8.475 18.054 88.475
    endloop
  endfacet
  facet normal -0.5005 0.865737 0
    outer loop
      vertex -11.464 16.326 0
      vertex -11.464 16.326 91.464
      vertex -8.475 18.054 0
    endloop
  endfacet
  facet normal -0.5005 0.865737 0
    outer loop
      vertex -8.475 18.054 0
      vertex -11.464 16.326 91.464
      vertex -8.475 18.054 88.475
    endloop
  endfacet
  facet normal -0.945266 -0.326302 -0
    outer loop
      vertex -11.464 16.326 0
      vertex -10.785 14.359 0
      vertex -11.464 16.326 91.464
    endloop
  endfacet
  facet normal -0.945266 -0.326302 0
    outer loop
      vertex -11.464 16.326 91.464
      vertex -10.785 14.359 0
      vertex -10.785 14.359 90.785
    endloop
  endfacet
  facet normal -0.660017 0.751251 0
    outer loop
      vertex -12.893 12.507 0
      vertex -12.893 12.507 92.893
      vertex -10.785 14.359 0
    endloop
  endfacet
  facet normal -0.660017 0.751251 0
    outer loop
      vertex -10.785 14.359 0
      vertex -12.893 12.507 92.893
      vertex -10.785 14.359 90.785
    endloop
  endfacet
  facet normal 0.448941 0.893561 0
    outer loop
      vertex -14.754 13.442 0
      vertex -14.754 13.442 94.754
      vertex -12.893 12.507 0
    endloop
  endfacet
  facet normal 0.448941 0.893561 0
    outer loop
      vertex -12.893 12.507 0
      vertex -14.754 13.442 94.754
      vertex -12.893 12.507 92.893
    endloop
  endfacet
  facet normal -0.792903 0.609347 0
    outer loop
      vertex -16.862 10.699 0
      vertex -16.862 10.699 96.862
      vertex -14.754 13.442 0
    endloop
  endfacet
  facet normal -0.792903 0.609347 0
    outer loop
      vertex -14.754 13.442 0
      vertex -16.862 10.699 96.862
      vertex -14.754 13.442 94.754
    endloop
  endfacet
  facet normal -0.746108 -0.665825 -0
    outer loop
      vertex -16.862 10.699 0
      vertex -15.477 9.147 0
      vertex -16.862 10.699 96.862
    endloop
  endfacet
  facet normal -0.746108 -0.665825 0
    outer loop
      vertex -16.862 10.699 96.862
      vertex -15.477 9.147 0
      vertex -15.477 9.147 95.477
    endloop
  endfacet
  facet normal -0.897547 0.440919 0
    outer loop
      vertex -16.712 6.633 0
      vertex -16.712 6.633 96.712
      vertex -15.477 9.147 0
    endloop
  endfacet
  facet normal -0.897547 0.440919 0
    outer loop
      vertex -15.477 9.147 0
      vertex -16.712 6.633 96.712
      vertex -15.477 9.147 95.477
    endloop
  endfacet
  facet normal 0.0715862 0.997434 0
    outer loop
      vertex -18.802 6.783 0
      vertex -18.802 6.783 98.802
      vertex -16.712 6.633 0
    endloop
  endfacet
  facet normal 0.0715862 0.997434 0
    outer loop
      vertex -16.712 6.633 0
      vertex -18.802 6.783 98.802
      vertex -16.712 6.633 96.712
    endloop
  endfacet
  facet normal -0.966913 0.255105 0
    outer loop
      vertex -19.684 3.44 0
      vertex -19.684 3.44 99.684
      vertex -18.802 6.783 0
    endloop
  endfacet
  facet normal -0.966913 0.255105 0
    outer loop
      vertex -18.802 6.783 0
      vertex -19.684 3.44 99.684
      vertex -18.802 6.783 98.802
    endloop
  endfacet
  facet normal -0.435285 -0.900293 0
    outer loop
      vertex -19.684 3.44 99.684
      vertex -19.684 3.44 0
      vertex -17.806 2.532 0
    endloop
  endfacet
  facet normal -0.435285 -0.900293 0
    outer loop
      vertex -17.806 2.532 97.806
      vertex -19.684 3.44 99.684
      vertex -17.806 2.532 0
    endloop
  endfacet
  facet normal -0.997818 0.0660216 0
    outer loop
      vertex -17.991 -0.264 0
      vertex -17.991 -0.264 97.991
      vertex -17.806 2.532 0
    endloop
  endfacet
  facet normal -0.997818 0.0660216 0
    outer loop
      vertex -17.806 2.532 0
      vertex -17.991 -0.264 97.991
      vertex -17.806 2.532 97.806
    endloop
  endfacet
  facet normal 0.980191 0.198057 0
    outer loop
      vertex -12.905 -5.473 0
      vertex -14.004 -0.034 0
      vertex -14.004 -0.034 94.004
    endloop
  endfacet
  facet normal 0.980191 0.198057 -0
    outer loop
      vertex -12.905 -5.473 92.905
      vertex -12.905 -5.473 0
      vertex -14.004 -0.034 94.004
    endloop
  endfacet
  facet normal 0.980191 -0.198057 0
    outer loop
      vertex -14.004 -0.034 94.004
      vertex -14.004 -0.034 0
      vertex -12.905 5.405 0
    endloop
  endfacet
  facet normal 0.980191 -0.198057 0
    outer loop
      vertex -12.905 5.405 92.905
      vertex -14.004 -0.034 94.004
      vertex -12.905 5.405 0
    endloop
  endfacet
  facet normal 0.829169 -0.558998 0
    outer loop
      vertex -12.905 5.405 92.905
      vertex -12.905 5.405 0
      vertex -9.909 9.849 0
    endloop
  endfacet
  facet normal 0.829169 -0.558998 0
    outer loop
      vertex -9.909 9.849 89.909
      vertex -12.905 5.405 92.905
      vertex -9.909 9.849 0
    endloop
  endfacet
  facet normal 0.559085 -0.82911 0
    outer loop
      vertex -9.909 9.849 89.909
      vertex -9.909 9.849 0
      vertex -5.466 12.845 0
    endloop
  endfacet
  facet normal 0.559085 -0.82911 0
    outer loop
      vertex -5.466 12.845 85.466
      vertex -9.909 9.849 89.909
      vertex -5.466 12.845 0
    endloop
  endfacet
  facet normal 0.198022 -0.980198 0
    outer loop
      vertex -5.466 12.845 85.466
      vertex -5.466 12.845 0
      vertex -0.026 13.944 0
    endloop
  endfacet
  facet normal 0.198022 -0.980198 0
    outer loop
      vertex -0.026 13.944 80.026
      vertex -5.466 12.845 85.466
      vertex -0.026 13.944 0
    endloop
  endfacet
  facet normal -0.198057 -0.980191 0
    outer loop
      vertex -0.026 13.944 80.026
      vertex -0.026 13.944 0
      vertex 5.413 12.845 0
    endloop
  endfacet
  facet normal -0.198057 -0.980191 0
    outer loop
      vertex 5.413 12.845 74.587
      vertex -0.026 13.944 80.026
      vertex 5.413 12.845 0
    endloop
  endfacet
  facet normal -0.559345 -0.828935 0
    outer loop
      vertex 5.413 12.845 74.587
      vertex 5.413 12.845 0
      vertex 9.853 9.849 0
    endloop
  endfacet
  facet normal -0.559345 -0.828935 0
    outer loop
      vertex 9.853 9.849 70.147
      vertex 5.413 12.845 74.587
      vertex 9.853 9.849 0
    endloop
  endfacet
  facet normal -0.829342 -0.558742 -0
    outer loop
      vertex 9.853 9.849 0
      vertex 12.847 5.405 0
      vertex 9.853 9.849 70.147
    endloop
  endfacet
  facet normal -0.829342 -0.558742 0
    outer loop
      vertex 9.853 9.849 70.147
      vertex 12.847 5.405 0
      vertex 12.847 5.405 67.153
    endloop
  endfacet
  facet normal -0.980261 -0.19771 -0
    outer loop
      vertex 12.847 5.405 0
      vertex 13.944 -0.034 0
      vertex 12.847 5.405 67.153
    endloop
  endfacet
  facet normal -0.980261 -0.19771 0
    outer loop
      vertex 12.847 5.405 67.153
      vertex 13.944 -0.034 0
      vertex 13.944 -0.034 66.056
    endloop
  endfacet
  facet normal -0.980261 0.19771 0
    outer loop
      vertex 12.847 -5.473 0
      vertex 12.847 -5.473 67.153
      vertex 13.944 -0.034 0
    endloop
  endfacet
  facet normal -0.980261 0.19771 0
    outer loop
      vertex 13.944 -0.034 0
      vertex 12.847 -5.473 67.153
      vertex 13.944 -0.034 66.056
    endloop
  endfacet
  facet normal -0.829108 0.559088 0
    outer loop
      vertex 9.853 -9.913 0
      vertex 9.853 -9.913 70.147
      vertex 12.847 -5.473 0
    endloop
  endfacet
  facet normal -0.829108 0.559088 0
    outer loop
      vertex 12.847 -5.473 0
      vertex 9.853 -9.913 70.147
      vertex 12.847 -5.473 67.153
    endloop
  endfacet
  facet normal -0.559088 0.829108 0
    outer loop
      vertex 5.413 -12.907 0
      vertex 5.413 -12.907 74.587
      vertex 9.853 -9.913 0
    endloop
  endfacet
  facet normal -0.559088 0.829108 0
    outer loop
      vertex 9.853 -9.913 0
      vertex 5.413 -12.907 74.587
      vertex 9.853 -9.913 70.147
    endloop
  endfacet
  facet normal -0.19771 0.980261 0
    outer loop
      vertex -0.026 -14.004 0
      vertex -0.026 -14.004 80.026
      vertex 5.413 -12.907 0
    endloop
  endfacet
  facet normal -0.19771 0.980261 0
    outer loop
      vertex 5.413 -12.907 0
      vertex -0.026 -14.004 80.026
      vertex 5.413 -12.907 74.587
    endloop
  endfacet
  facet normal 0.197675 0.980268 0
    outer loop
      vertex -5.466 -12.907 0
      vertex -5.466 -12.907 85.466
      vertex -0.026 -14.004 0
    endloop
  endfacet
  facet normal 0.197675 0.980268 0
    outer loop
      vertex -0.026 -14.004 0
      vertex -5.466 -12.907 85.466
      vertex -0.026 -14.004 80.026
    endloop
  endfacet
  facet normal 0.558828 0.829283 0
    outer loop
      vertex -9.909 -9.913 0
      vertex -9.909 -9.913 89.909
      vertex -5.466 -12.907 0
    endloop
  endfacet
  facet normal 0.558828 0.829283 0
    outer loop
      vertex -5.466 -12.907 0
      vertex -9.909 -9.913 89.909
      vertex -5.466 -12.907 85.466
    endloop
  endfacet
  facet normal 0.828935 0.559345 0
    outer loop
      vertex -9.909 -9.913 0
      vertex -12.905 -5.473 0
      vertex -12.905 -5.473 92.905
    endloop
  endfacet
  facet normal 0.828935 0.559345 -0
    outer loop
      vertex -9.909 -9.913 89.909
      vertex -9.909 -9.913 0
      vertex -12.905 -5.473 92.905
    endloop
  endfacet
endsolid OpenSCAD_Model
