  0
SECTION
  2
HEADER
  9
$ACADVER
  1
AC1014
  9
$HANDSEED
  5
FFFF
  9
$MEASUREMENT
 70
     1
  0
ENDSEC
  0
SECTION
  2
TABLES
  0
TABLE
  2
VPORT
  5
8
330
0
100
AcDbSymbolTable
 70
     4
  0
VPORT
  5
2E
330
8
100
AcDbSymbolTableRecord
100
AcDbViewportTableRecord
  2
*ACTIVE
 70
     0
 10
0.0
 20
0.0
 11
1.0
 21
1.0
 12
210.0
 22
148.5
 13
0.0
 23
0.0
 14
10.0
 24
10.0
 15
10.0
 25
10.0
 16
0.0
 26
0.0
 36
1.0
 17
0.0
 27
0.0
 37
0.0
 40
341.0
 41
1.24
 42
50.0
 43
0.0
 44
0.0
 50
0.0
 51
0.0
 71
     0
 72
   100
 73
     1
 74
     3
 75
     0
 76
     0
 77
     0
 78
     0
  0
ENDTAB
  0
TABLE
  2
LTYPE
  5
5
330
0
100
AcDbSymbolTable
 70
     1
  0
LTYPE
  5
14
330
5
100
AcDbSymbolTableRecord
100
AcDbLinetypeTableRecord
  2
BYBLOCK
 70
     0
  3

 72
    65
 73
     0
 40
0.0
  0
LTYPE
  5
15
330
5
100
AcDbSymbolTableRecord
100
AcDbLinetypeTableRecord
  2
BYLAYER
 70
     0
  3

 72
    65
 73
     0
 40
0.0
  0
LTYPE
  5
16
330
5
100
AcDbSymbolTableRecord
100
AcDbLinetypeTableRecord
  2
CONTINUOUS
 70
     0
  3
Solid line
 72
    65
 73
     0
 40
0.0
  0
ENDTAB
  0
TABLE
  2
LAYER
  5
2
100
AcDbSymbolTable
 70
2
  0
LAYER
  5
50
100
AcDbSymbolTableRecord
100
AcDbLayerTableRecord
  2
0
 70
0
  6
CONTINUOUS
  0
LAYER
  5
51
100
AcDbSymbolTableRecord
100
AcDbLayerTableRecord
  2
Layer_1
 70
0
  6
CONTINUOUS
  0
ENDTAB
  0
TABLE
  2
STYLE
  5
3
330
0
100
AcDbSymbolTable
 70
     1
  0
STYLE
  5
11
330
3
100
AcDbSymbolTableRecord
100
AcDbTextStyleTableRecord
  2
STANDARD
 70
     0
 40
0.0
 41
1.0
 50
0.0
 71
     0
 42
2.5
  3
txt
  4

  0
ENDTAB
  0
TABLE
  2
VIEW
  5
6
330
0
100
AcDbSymbolTable
 70
     0
  0
ENDTAB
  0
TABLE
  2
UCS
  5
7
330
0
100
AcDbSymbolTable
 70
     0
  0
ENDTAB
  0
TABLE
  2
APPID
  5
9
330
0
100
AcDbSymbolTable
 70
     2
  0
APPID
  5
12
330
9
100
AcDbSymbolTableRecord
100
AcDbRegAppTableRecord
  2
ACAD
 70
     0
  0
ENDTAB
  0
TABLE
  2
DIMSTYLE
  5
A
330
0
100
AcDbSymbolTable
 70
     1
  0
DIMSTYLE
105
27
330
A
100
AcDbSymbolTableRecord
100
AcDbDimStyleTableRecord
  2
ISO-25
 70
     0
  3

  4

  5

  6

  7

 40
1.0
 41
2.5
 42
0.625
 43
3.75
 44
1.25
 45
0.0
 46
0.0
 47
0.0
 48
0.0
140
2.5
141
2.5
142
0.0
143
0.03937007874016
144
1.0
145
0.0
146
1.0
147
0.625
 71
     0
 72
     0
 73
     0
 74
     0
 75
     0
 76
     0
 77
     1
 78
     8
170
     0
171
     3
172
     1
173
     0
174
     0
175
     0
176
     0
177
     0
178
     0
270
     2
271
     2
272
     2
273
     2
274
     3
340
11
275
     0
280
     0
281
     0
282
     0
283
     0
284
     8
285
     0
286
     0
287
     3
288
     0
  0
ENDTAB
  0
TABLE
  2
BLOCK_RECORD
  5
1
330
0
100
AcDbSymbolTable
 70
     1
  0
BLOCK_RECORD
  5
1F
330
1
100
AcDbSymbolTableRecord
100
AcDbBlockTableRecord
  2
*MODEL_SPACE
  0
BLOCK_RECORD
  5
1B
330
1
100
AcDbSymbolTableRecord
100
AcDbBlockTableRecord
  2
*PAPER_SPACE
  0
ENDTAB
  0
ENDSEC
  0
SECTION
  2
BLOCKS
  0
BLOCK
  5
20
330
1F
100
AcDbEntity
  8
0
100
AcDbBlockBegin
  2
*MODEL_SPACE
 70
     0
 10
0.0
 20
0.0
 30
0.0
  3
*MODEL_SPACE
  1

  0
ENDBLK
  5
21
330
1F
100
AcDbEntity
  8
0
100
AcDbBlockEnd
  0
BLOCK
  5
1C
330
1B
100
AcDbEntity
 67
     1
  8
0
100
AcDbBlockBegin
  2
*PAPER_SPACE
  1

  0
ENDBLK
  5
1D
330
1B
100
AcDbEntity
 67
     1
  8
0
100
AcDbBlockEnd
  0
ENDSEC
  0
SECTION
  2
ENTITIES
  0
LWPOLYLINE
  5
100
100
AcDbEntity
  8
Layer_1
 62
7
100
AcDbPolyline
 90
342
 70
0
 10
29.343652
 20
110.046849
 30
0.0
 10
26.172721
 20
109.546661
 30
0.0
 10
25.113715
 20
108.964700
 30
0.0
 10
24.172676
 20
108.108600
 30
0.0
 10
23.147726
 20
105.899592
 30
0.0
 10
22.756011
 20
103.582823
 30
0.0
 10
22.714164
 20
102.591272
 30
0.0
 10
21.391624
 20
102.351199
 30
0.0
 10
20.092947
 20
102.012140
 30
0.0
 10
18.985094
 20
101.516044
 30
0.0
 10
18.140687
 20
100.903283
 30
0.0
 10
17.632343
 20
100.214227
 30
0.0
 10
17.335338
 20
99.012751
 30
0.0
 10
17.305278
 20
97.517728
 30
0.0
 10
17.528491
 20
95.946434
 30
0.0
 10
17.991307
 20
94.516149
 30
0.0
 10
17.733561
 20
93.781797
 30
0.0
 10
17.267999
 20
93.144577
 30
0.0
 10
16.326713
 20
92.096198
 30
0.0
 10
15.026251
 20
91.054500
 30
0.0
 10
13.596600
 20
90.180430
 30
0.0
 10
12.267750
 20
89.634932
 30
0.0
 10
9.585590
 20
89.398048
 30
0.0
 10
7.409352
 20
89.637068
 30
0.0
 10
7.057026
 20
89.987244
 30
0.0
 10
6.332319
 20
91.170148
 30
0.0
 10
5.020618
 20
92.272920
 30
0.0
 10
3.801754
 20
92.502209
 30
0.0
 10
2.294549
 20
92.416929
 30
0.0
 10
0.859486
 20
91.746174
 30
0.0
 10
0.356893
 20
91.209758
 30
0.0
 10
0.092816
 20
90.616323
 30
0.0
 10
0.027628
 20
89.077912
 30
0.0
 10
0.357888
 20
88.097939
 30
0.0
 10
0.771696
 20
87.473830
 30
0.0
 10
1.044564
 20
86.747374
 30
0.0
 10
1.175448
 20
85.536368
 30
0.0
 10
1.722974
 20
82.552557
 30
0.0
 10
2.484712
 20
80.039139
 30
0.0
 10
3.968668
 20
77.547038
 30
0.0
 10
4.458066
 20
76.699810
 30
0.0
 10
5.124271
 20
76.042669
 30
0.0
 10
6.764590
 20
75.141526
 30
0.0
 10
8.444600
 20
74.529367
 30
0.0
 10
9.719279
 20
73.891950
 30
0.0
 10
13.639410
 20
72.545037
 30
0.0
 10
15.718482
 20
71.984897
 30
0.0
 10
17.581535
 20
71.829061
 30
0.0
 10
20.891935
 20
70.568174
 30
0.0
 10
22.197201
 20
69.815755
 30
0.0
 10
23.257650
 20
68.942602
 30
0.0
 10
24.064635
 20
67.919155
 30
0.0
 10
24.609510
 20
66.715851
 30
0.0
 10
24.883628
 20
65.303129
 30
0.0
 10
24.878343
 20
63.651426
 30
0.0
 10
24.409039
 20
62.107991
 30
0.0
 10
23.553132
 20
60.554483
 30
0.0
 10
23.027286
 20
59.933429
 30
0.0
 10
22.693138
 20
59.040061
 30
0.0
 10
22.167745
 20
57.542015
 30
0.0
 10
21.841343
 20
56.780404
 30
0.0
 10
21.693073
 20
55.856087
 30
0.0
 10
21.470780
 20
54.535533
 30
0.0
 10
21.256445
 20
53.072120
 30
0.0
 10
21.042331
 20
51.853716
 30
0.0
 10
20.612075
 20
49.694800
 30
0.0
 10
20.527971
 20
46.564623
 30
0.0
 10
20.441708
 20
44.103947
 30
0.0
 10
20.199741
 20
43.594484
 30
0.0
 10
19.762175
 20
43.300071
 30
0.0
 10
18.036803
 20
42.413962
 30
0.0
 10
16.715373
 20
41.235139
 30
0.0
 10
15.736783
 20
39.857286
 30
0.0
 10
15.216739
 20
38.786089
 30
0.0
 10
14.824877
 20
36.336280
 30
0.0
 10
14.847393
 20
34.604085
 30
0.0
 10
14.894118
 20
33.957659
 30
0.0
 10
14.636582
 20
33.575388
 30
0.0
 10
14.022205
 20
33.152876
 30
0.0
 10
13.276602
 20
32.607890
 30
0.0
 10
12.150223
 20
31.324412
 30
0.0
 10
11.516136
 20
30.155910
 30
0.0
 10
11.248661
 20
28.684456
 30
0.0
 10
11.349306
 20
26.925514
 30
0.0
 10
11.819585
 20
24.894546
 30
0.0
 10
11.948736
 20
23.715005
 30
0.0
 10
11.232437
 20
21.991252
 30
0.0
 10
10.790429
 20
20.496550
 30
0.0
 10
10.748211
 20
19.065957
 30
0.0
 10
11.205850
 20
16.243966
 30
0.0
 10
11.755416
 20
14.371546
 30
0.0
 10
11.785845
 20
13.548958
 30
0.0
 10
11.540923
 20
10.578608
 30
0.0
 10
11.759165
 20
6.641428
 30
0.0
 10
11.254361
 20
6.146075
 30
0.0
 10
10.211819
 20
5.699762
 30
0.0
 10
8.390976
 20
5.201135
 30
0.0
 10
7.559387
 20
4.960823
 30
0.0
 10
6.776916
 20
4.385485
 30
0.0
 10
6.154437
 20
3.488470
 30
0.0
 10
6.078505
 20
2.566901
 30
0.0
 10
6.784327
 20
1.772138
 30
0.0
 10
7.676916
 20
1.163151
 30
0.0
 10
9.790596
 20
0.402497
 30
0.0
 10
11.955953
 20
0.084925
 30
0.0
 10
13.709392
 20
0.010420
 30
0.0
 10
16.627432
 20
0.154438
 30
0.0
 10
18.276841
 20
0.415969
 30
0.0
 10
20.092229
 20
0.939100
 30
0.0
 10
22.956241
 20
2.129376
 30
0.0
 10
24.252465
 20
2.946736
 30
0.0
 10
25.337301
 20
3.953911
 30
0.0
 10
25.983659
 20
4.579386
 30
0.0
 10
26.684059
 20
4.921058
 30
0.0
 10
28.045975
 20
5.533113
 30
0.0
 10
29.624965
 20
6.509965
 30
0.0
 10
31.318387
 20
7.148317
 30
0.0
 10
32.795532
 20
7.856694
 30
0.0
 10
33.349653
 20
8.364805
 30
0.0
 10
33.725688
 20
9.043619
 30
0.0
 10
34.247421
 20
11.046494
 30
0.0
 10
34.399155
 20
11.642039
 30
0.0
 10
34.717578
 20
12.057262
 30
0.0
 10
35.719326
 20
12.339580
 30
0.0
 10
36.947065
 20
12.848317
 30
0.0
 10
37.835126
 20
13.525223
 30
0.0
 10
38.437179
 20
14.168944
 30
0.0
 10
39.237835
 20
15.313697
 30
0.0
 10
40.252184
 20
19.028108
 30
0.0
 10
40.788275
 20
20.035761
 30
0.0
 10
42.000667
 20
21.398281
 30
0.0
 10
42.657888
 20
22.165227
 30
0.0
 10
43.125122
 20
22.953988
 30
0.0
 10
44.247957
 20
25.119776
 30
0.0
 10
44.514153
 20
26.280269
 30
0.0
 10
44.537622
 20
27.969520
 30
0.0
 10
44.560574
 20
28.650162
 30
0.0
 10
44.913093
 20
28.697682
 30
0.0
 10
46.905679
 20
28.262337
 30
0.0
 10
48.796928
 20
28.100432
 30
0.0
 10
51.137456
 20
27.824007
 30
0.0
 10
52.067059
 20
27.732485
 30
0.0
 10
53.549908
 20
27.667153
 30
0.0
 10
55.291330
 20
27.606978
 30
0.0
 10
60.494709
 20
27.833792
 30
0.0
 10
65.323934
 20
28.406127
 30
0.0
 10
67.496411
 20
28.906171
 30
0.0
 10
69.417461
 20
29.521647
 30
0.0
 10
70.373618
 20
29.949326
 30
0.0
 10
71.164625
 20
30.520349
 30
0.0
 10
71.765105
 20
30.974157
 30
0.0
 10
72.056019
 20
30.971695
 30
0.0
 10
72.249580
 20
30.793413
 30
0.0
 10
71.947442
 20
29.246528
 30
0.0
 10
71.958254
 20
28.803369
 30
0.0
 10
72.320380
 20
27.904693
 30
0.0
 10
73.118001
 20
26.986591
 30
0.0
 10
73.762859
 20
26.460911
 30
0.0
 10
74.183881
 20
26.357202
 30
0.0
 10
74.921745
 20
26.139434
 30
0.0
 10
75.425364
 20
25.928769
 30
0.0
 10
76.182909
 20
25.904591
 30
0.0
 10
77.092327
 20
25.821412
 30
0.0
 10
77.149374
 20
25.686952
 30
0.0
 10
76.898017
 20
25.514523
 30
0.0
 10
76.504242
 20
25.284671
 30
0.0
 10
76.316287
 20
24.972503
 30
0.0
 10
76.451017
 20
23.663729
 30
0.0
 10
76.936084
 20
22.413023
 30
0.0
 10
77.602802
 20
21.314756
 30
0.0
 10
78.458097
 20
20.425842
 30
0.0
 10
79.508892
 20
19.803192
 30
0.0
 10
80.320010
 20
19.349136
 30
0.0
 10
81.247841
 20
19.123462
 30
0.0
 10
82.053945
 20
18.918127
 30
0.0
 10
82.167424
 20
18.721435
 30
0.0
 10
82.060009
 20
18.484559
 30
0.0
 10
82.008390
 20
17.807968
 30
0.0
 10
82.777925
 20
16.301110
 30
0.0
 10
84.045934
 20
14.499222
 30
0.0
 10
85.082928
 20
13.757662
 30
0.0
 10
85.917078
 20
13.388120
 30
0.0
 10
86.292743
 20
13.036566
 30
0.0
 10
86.315310
 20
12.462657
 30
0.0
 10
86.470373
 20
11.231822
 30
0.0
 10
87.150767
 20
10.077738
 30
0.0
 10
88.260531
 20
9.106689
 30
0.0
 10
89.225721
 20
8.593898
 30
0.0
 10
89.412644
 20
8.458520
 30
0.0
 10
89.283636
 20
8.218091
 30
0.0
 10
89.175951
 20
7.495602
 30
0.0
 10
89.048013
 20
6.690935
 30
0.0
 10
88.553265
 20
5.915659
 30
0.0
 10
87.663945
 20
5.138720
 30
0.0
 10
86.352293
 20
4.329069
 30
0.0
 10
84.814492
 20
3.209966
 30
0.0
 10
84.611227
 20
2.648105
 30
0.0
 10
84.682643
 20
1.938675
 30
0.0
 10
84.977570
 20
1.077431
 30
0.0
 10
85.440353
 20
0.783624
 30
0.0
 10
86.861791
 20
0.493020
 30
0.0
 10
87.994425
 20
0.324956
 30
0.0
 10
88.855674
 20
0.215765
 30
0.0
 10
90.447372
 20
0.102636
 30
0.0
 10
92.455221
 20
0.406998
 30
0.0
 10
94.332778
 20
0.807415
 30
0.0
 10
95.541660
 20
1.195014
 30
0.0
 10
96.593731
 20
1.947836
 30
0.0
 10
97.659431
 20
3.229619
 30
0.0
 10
98.909197
 20
5.204099
 30
0.0
 10
99.519399
 20
6.396445
 30
0.0
 10
99.689217
 20
7.466364
 30
0.0
 10
99.825584
 20
9.914642
 30
0.0
 10
99.990796
 20
14.916476
 30
0.0
 10
99.944499
 20
19.979891
 30
0.0
 10
99.861994
 20
24.117086
 30
0.0
 10
99.597551
 20
36.749598
 30
0.0
 10
99.232577
 20
38.928882
 30
0.0
 10
98.714966
 20
40.363508
 30
0.0
 10
97.910014
 20
41.474877
 30
0.0
 10
96.683014
 20
42.684390
 30
0.0
 10
97.175427
 20
45.628628
 30
0.0
 10
97.320569
 20
46.876228
 30
0.0
 10
97.286849
 20
48.783005
 30
0.0
 10
96.756547
 20
53.232476
 30
0.0
 10
96.147977
 20
55.195515
 30
0.0
 10
93.545214
 20
59.682324
 30
0.0
 10
93.196387
 20
60.633627
 30
0.0
 10
93.399477
 20
61.128181
 30
0.0
 10
94.368267
 20
61.752836
 30
0.0
 10
95.615468
 20
62.627983
 30
0.0
 10
96.694903
 20
63.736558
 30
0.0
 10
97.604891
 20
65.076970
 30
0.0
 10
98.343751
 20
66.647630
 30
0.0
 10
98.789642
 20
68.592439
 30
0.0
 10
98.687554
 20
70.843428
 30
0.0
 10
98.195738
 20
72.977851
 30
0.0
 10
97.472446
 20
74.572966
 30
0.0
 10
97.192440
 20
75.176454
 30
0.0
 10
97.258937
 20
76.331504
 30
0.0
 10
97.235864
 20
78.377888
 30
0.0
 10
96.720333
 20
79.611240
 30
0.0
 10
95.477708
 20
80.924166
 30
0.0
 10
94.904955
 20
81.248202
 30
0.0
 10
93.938463
 20
81.504079
 30
0.0
 10
93.297917
 20
81.627421
 30
0.0
 10
92.746601
 20
82.320601
 30
0.0
 10
91.602558
 20
83.590152
 30
0.0
 10
90.157215
 20
84.492267
 30
0.0
 10
89.375087
 20
84.720391
 30
0.0
 10
88.316441
 20
84.676341
 30
0.0
 10
86.743526
 20
84.366854
 30
0.0
 10
85.657571
 20
83.945815
 30
0.0
 10
84.715773
 20
83.343282
 30
0.0
 10
84.347681
 20
83.036644
 30
0.0
 10
83.778824
 20
82.902800
 30
0.0
 10
82.552769
 20
82.670248
 30
0.0
 10
81.538532
 20
82.209454
 30
0.0
 10
80.897016
 20
81.776186
 30
0.0
 10
80.375833
 20
81.340376
 30
0.0
 10
79.575152
 20
80.380716
 30
0.0
 10
79.250239
 20
79.197211
 30
0.0
 10
79.116655
 20
78.098491
 30
0.0
 10
78.889962
 20
77.393185
 30
0.0
 10
78.283788
 20
76.906414
 30
0.0
 10
77.696443
 20
76.377758
 30
0.0
 10
77.159567
 20
75.512509
 30
0.0
 10
77.064576
 20
73.732167
 30
0.0
 10
77.045675
 20
71.187522
 30
0.0
 10
77.221858
 20
70.187976
 30
0.0
 10
77.774896
 20
69.112223
 30
0.0
 10
78.467807
 20
67.953249
 30
0.0
 10
78.631610
 20
66.677636
 30
0.0
 10
78.636194
 20
65.532533
 30
0.0
 10
78.449591
 20
64.799997
 30
0.0
 10
78.237261
 20
64.091267
 30
0.0
 10
77.711656
 20
63.691090
 30
0.0
 10
76.001380
 20
62.528029
 30
0.0
 10
73.287267
 20
61.497087
 30
0.0
 10
70.605448
 20
60.907126
 30
0.0
 10
68.146509
 20
60.645385
 30
0.0
 10
66.101036
 20
60.599106
 30
0.0
 10
62.656621
 20
60.770528
 30
0.0
 10
60.948489
 20
60.988087
 30
0.0
 10
59.324200
 20
61.432765
 30
0.0
 10
57.815943
 20
61.954314
 30
0.0
 10
54.535944
 20
63.479586
 30
0.0
 10
52.833790
 20
64.665960
 30
0.0
 10
52.293934
 20
65.261310
 30
0.0
 10
52.086039
 20
65.818568
 30
0.0
 10
52.303326
 20
66.217012
 30
0.0
 10
53.707521
 20
66.666974
 30
0.0
 10
55.846035
 20
67.740453
 30
0.0
 10
57.590188
 20
68.912514
 30
0.0
 10
58.486972
 20
69.796237
 30
0.0
 10
59.346508
 20
70.948475
 30
0.0
 10
59.982801
 20
72.229772
 30
0.0
 10
60.209856
 20
73.500671
 30
0.0
 10
60.282108
 20
74.942305
 30
0.0
 10
60.308194
 20
76.963801
 30
0.0
 10
60.359647
 20
78.705889
 30
0.0
 10
60.737928
 20
79.622579
 30
0.0
 10
61.131453
 20
80.301527
 30
0.0
 10
61.420321
 20
81.466546
 30
0.0
 10
61.540657
 20
82.738466
 30
0.0
 10
61.428588
 20
83.738116
 30
0.0
 10
61.184925
 20
85.125171
 30
0.0
 10
60.895714
 20
86.492220
 30
0.0
 10
60.263721
 20
87.389753
 30
0.0
 10
59.954031
 20
87.794427
 30
0.0
 10
59.809937
 20
88.352598
 30
0.0
 10
60.053736
 20
89.583006
 30
0.0
 10
60.264881
 20
90.251329
 30
0.0
 10
60.282699
 20
91.077147
 30
0.0
 10
59.759359
 20
92.959547
 30
0.0
 10
59.343643
 20
94.157510
 30
0.0
 10
59.164429
 20
96.254632
 30
0.0
 10
58.988652
 20
98.310870
 30
0.0
 10
58.628407
 20
99.405079
 30
0.0
 10
57.857300
 20
100.522415
 30
0.0
 10
56.900575
 20
101.529824
 30
0.0
 10
55.213199
 20
102.792702
 30
0.0
 10
53.520766
 20
104.048221
 30
0.0
 10
51.533366
 20
105.536927
 30
0.0
 10
50.547366
 20
106.143030
 30
0.0
 10
49.144221
 20
106.817201
 30
0.0
 10
47.184922
 20
107.346684
 30
0.0
 10
45.277907
 20
107.576529
 30
0.0
 10
44.031614
 20
107.351788
 30
0.0
 10
43.457918
 20
107.228882
 30
0.0
 10
42.805020
 20
107.546956
 30
0.0
 10
42.455236
 20
108.017462
 30
0.0
 10
41.783586
 20
108.698143
 30
0.0
 10
40.638611
 20
109.427851
 30
0.0
 10
39.629477
 20
110.017301
 30
0.0
 10
38.529206
 20
110.119307
 30
0.0
 10
35.645042
 20
110.047799
 30
0.0
 10
33.603528
 20
109.752517
 30
0.0
 10
32.342763
 20
109.683054
 30
0.0
 10
30.807553
 20
109.989705
 30
0.0
 10
29.343652
 20
110.046849
 30
0.0
 10
29.343652
 20
110.046849
 30
0.0
  0
LWPOLYLINE
  5
101
100
AcDbEntity
  8
Layer_1
 62
7
100
AcDbPolyline
 90
18
 70
0
 10
49.421198
 20
102.211248
 30
0.0
 10
50.206884
 20
102.097807
 30
0.0
 10
50.864913
 20
101.705659
 30
0.0
 10
51.327709
 20
101.095248
 30
0.0
 10
51.527699
 20
100.327017
 30
0.0
 10
51.414256
 20
99.541329
 30
0.0
 10
51.022107
 20
98.883301
 30
0.0
 10
50.411697
 20
98.420505
 30
0.0
 10
49.643467
 20
98.220516
 30
0.0
 10
48.857780
 20
98.333958
 30
0.0
 10
48.199750
 20
98.726107
 30
0.0
 10
47.736954
 20
99.336519
 30
0.0
 10
47.536966
 20
100.104750
 30
0.0
 10
47.650407
 20
100.890437
 30
0.0
 10
48.042556
 20
101.548465
 30
0.0
 10
48.652967
 20
102.011260
 30
0.0
 10
49.421198
 20
102.211248
 30
0.0
 10
49.421198
 20
102.211248
 30
0.0
  0
ENDSEC
  0
SECTION
  2
OBJECTS
  0
DICTIONARY
  5
C
330
0
100
AcDbDictionary
  3
ACAD_GROUP
350
D
  3
ACAD_MLINESTYLE
350
17
  0
DICTIONARY
  5
D
330
C
100
AcDbDictionary
  0
DICTIONARY
  5
1A
330
C
100
AcDbDictionary
  0
DICTIONARY
  5
17
330
C
100
AcDbDictionary
  3
STANDARD
350
18
  0
DICTIONARY
  5
19
330
C
100
AcDbDictionary
  0
ENDSEC
  0
EOF
