<?xml version="1.0" encoding="UTF-8" standalone="no"?>
<!-- Created with Inkscape (http://www.inkscape.org/) -->

<svg
   xmlns:dc="http://purl.org/dc/elements/1.1/"
   xmlns:cc="http://creativecommons.org/ns#"
   xmlns:rdf="http://www.w3.org/1999/02/22-rdf-syntax-ns#"
   xmlns:svg="http://www.w3.org/2000/svg"
   xmlns="http://www.w3.org/2000/svg"
   xmlns:sodipodi="http://sodipodi.sourceforge.net/DTD/sodipodi-0.dtd"
   xmlns:inkscape="http://www.inkscape.org/namespaces/inkscape"
   width="354.33072"
   height="390.24515"
   id="svg2"
   version="1.1"
   inkscape:version="0.48.3.1 r9886"
   sodipodi:docname="poodle.svg"
   inkscape:export-filename="/home/stick/work/scm/prusnak/3d/poodle/poodle.png"
   inkscape:export-xdpi="90"
   inkscape:export-ydpi="90">
  <defs
     id="defs4" />
  <sodipodi:namedview
     id="base"
     pagecolor="#ffffff"
     bordercolor="#666666"
     borderopacity="1.0"
     inkscape:pageopacity="0.0"
     inkscape:pageshadow="2"
     inkscape:zoom="1.3581826"
     inkscape:cx="389.53763"
     inkscape:cy="185.47592"
     inkscape:document-units="px"
     inkscape:current-layer="layer1"
     showgrid="false"
     fit-margin-top="0"
     fit-margin-left="0"
     fit-margin-right="0"
     fit-margin-bottom="0"
     inkscape:window-width="1920"
     inkscape:window-height="1141"
     inkscape:window-x="0"
     inkscape:window-y="27"
     inkscape:window-maximized="1" />
  <metadata
     id="metadata7">
    <rdf:RDF>
      <cc:Work
         rdf:about="">
        <dc:format>image/svg+xml</dc:format>
        <dc:type
           rdf:resource="http://purl.org/dc/dcmitype/StillImage" />
        <dc:title></dc:title>
      </cc:Work>
    </rdf:RDF>
  </metadata>
  <g
     inkscape:label="Layer 1"
     inkscape:groupmode="layer"
     id="layer1"
     transform="translate(0,-662.11707)">
    <path
       style="fill:#000000;stroke:none"
       d="M 103.97357,662.43244 C 99.930177,662.66087 94.78767,663.38256 92.737988,664.20476 90.062041,665.27816 87.769838,666.93171 85.651215,669.30025 82.420007,673.99304 80.871079,680.13457 80.631535,685.33647 L 80.483258,688.84984 75.797094,689.70049 C 69.3252,690.86782 63.970219,693.90041 62.476805,697.27244 60.421524,701.91311 61.017736,711.38049 63.748724,717.46248 63.750991,719.34855 62.165362,720.8952 61.185825,722.32238 57.949436,727.03768 49.146143,733.21059 43.468404,734.75813 39.355315,735.8792 27.976517,735.87786 26.253609,734.75056 25.548919,734.2895 24.981256,733.73033 25.00521,733.50978 25.174008,731.95567 20.393997,726.58646 17.78959,725.41093 15.834072,724.52829 11.448051,724.29715 8.1302911,724.90066 4.400817,725.57907 0.9005932,728.43339 0.32887475,731.28076 -0.37569095,734.78977 0.10441803,739.33345 1.2681086,740.20417 1.4474004,740.33831 2.1048273,741.33359 2.7343568,742.41558 3.6285781,743.95247 3.9415421,745.4545 4.1649717,749.2806 4.9063195,756.5065 7.0507302,763.7554 8.8040962,768.75897 10.442354,772.32361 12.820223,775.31255 14.062211,777.58925 17.675929,786.61632 30.074588,786.9744 34.438391,790.54035 42.27718,792.91403 54.354077,798.45692 62.296778,797.8498 80.059072,803.31772 89.548791,809.99688 88.15161,826.82567 87.918733,829.47408 85.51533,835.10309 83.455978,837.79909 80.348687,839.65465 80.073631,846.695 78.547127,848.47319 77.778006,849.33304 76.79277,852.81841 76.865219,854.44695 76.897198,855.16584 76.547155,857.27255 76.077566,859.12608 75.607977,860.97962 75.262482,863.3126 75.318111,864.3114 75.37374,865.3102 75.037534,867.2513 74.559441,868.62858 73.116997,872.78395 72.543984,878.62546 72.736906,887.36946 72.936002,896.39343 72.627208,897.74021 70.023453,898.93677 65.351716,900.76809 61.99105,903.03924 59.227699,906.25346 53.234882,913.9706 53.293069,915.8909 52.529092,923.61162 52.328662,925.59999 52.365169,928.35898 52.608873,929.74932 52.999106,931.97555 52.909126,932.41606 51.861903,933.39431 51.207882,934.00525 50.227251,934.67368 49.684978,934.8914 48.179275,935.4959 46.356619,937.27677 43.051971,941.37021 39.192656,946.15071 38.783105,953.93984 41.880418,964.1532 42.921015,967.58456 42.75363,968.43802 39.799974,974.44046 38.080313,977.98825 37.915097,981.56077 38.084212,984.80568 38.32713,989.25825 38.760165,991.90787 39.705766,994.80486 41.747159,1001.0589 42.172095,1003.0599 41.760869,1004.3541 40.645382,1007.8643 40.593638,1020.7517 41.666331,1028.8296 41.290842,1031.1885 31.399409,1033.6672 29.731805,1033.933 27.296317,1034.3136 26.216127,1034.8597 24.012693,1036.8231 22.019114,1038.5994 20.949478,1041.3746 21.538011,1043.2669 27.142313,1051.7329 41.995724,1052.2325 48.576587,1052.3253 54.212499,1052.3955 53.289108,1052.4288 58.916099,1051.815 63.400352,1051.3259 65.924526,1050.7597 71.192939,1049.0347 77.957703,1046.7753 85.294731,1043.6082 89.777838,1038.3523 91.435694,1036.3943 92.636647,1035.5426 94.549817,1034.9254 95.953921,1034.4725 98.119378,1033.4947 99.375503,1032.7567 106.04418,1026.6987 116.91893,1027.6992 119.50047,1020.3179 120.32958,1017.9736 121.38723,1013.9051 121.34913,1013.2211 121.32887,1012.8573 121.57121,1011.9148 121.88677,1011.1109 122.4613,1009.6473 122.7617,1009.475 126.56454,1008.6393 129.04306,1008.0945 133.18773,1005.7775 134.06147,1004.4382 134.41194,1003.9009 135.36954,1002.8686 136.19473,1002.1573 137.01994,1001.446 138.29505,999.62534 139.0317,998.10109 143.66476,983.38692 140.71985,984.90498 148.82126,976.54154 151.28882,974.78933 151.23557,972.88446 152.80555,971.02919 153.51272,970.36048 155.52676,966.48239 156.7841,963.35514 157.72507,961.01477 158.01624,958.09606 157.81047,953.25762 157.69239,950.48105 157.70195,950.46296 159.14088,950.67752 164.05985,952.52741 168.46229,952.23571 172.9025,952.79376 176.01818,953.19272 179.74683,953.63822 181.19571,953.77322 182.64459,953.90821 184.13188,954.04673 184.48958,954.09751 184.84729,954.14831 187.21208,954.25989 189.74377,954.329 192.27545,954.39811 195.0467,954.49456 195.91416,954.54222 202.50615,954.90445 226.63843,952.98074 231.46276,951.71059 232.85316,951.34453 236.31171,950.54768 239.16051,949.93878 242.00931,949.32986 245.07181,948.35062 245.96738,947.75796 246.86295,947.16531 248.38676,946.48071 249.35534,946.24256 250.45136,945.97309 251.5108,945.20512 252.15812,944.21925 253.28303,942.50602 255.42559,941.96705 256.00245,943.2517 256.34669,944.01834 255.86676,946.49312 254.93188,948.73279 254.58064,949.57422 254.59331,950.08085 254.97019,950.30304 255.80787,952.98227 256.1844,953.96943 259.07953,956.74044 260.99061,958.55691 262.00269,959.14765 262.85627,958.97056 263.49846,958.83735 264.68135,959.18943 265.47075,959.74218 266.54787,960.49641 267.66267,960.70111 269.93944,960.5743 273.18674,960.39344 274.44045,961.08039 272.47329,961.95643 270.08469,963.02014 269.89318,963.82819 270.88943,968.51436 272.76289,974.69368 276.28732,979.97037 281.72442,982.19343 282.97438,982.69828 284.26525,983.42077 284.59846,983.80229 284.93162,984.18381 286.41041,984.54264 287.88605,984.60192 290.60361,984.71111 291.82597,985.6783 290.76381,986.86575 289.81454,987.92698 290.37741,989.61863 293.30761,994.60238 296.48971,1000.0145 299.38425,1003.2119 301.47494,1003.6146 302.2098,1003.7561 303.53997,1004.3393 304.43059,1004.924 305.90974,1005.8953 306.03068,1006.1814 305.84165,1008.2032 305.56703,1011.1414 306.59467,1014.0781 308.80193,1016.6537 310.6547,1018.8157 314.98439,1021.9144 316.15413,1021.9114 316.93833,1021.9093 317.06773,1022.7488 316.35934,1023.243 316.08184,1023.4366 315.91026,1024.5907 315.97778,1025.803 316.19611,1029.7229 313.21083,1033.0717 305.97269,1037.023 300.1957,1040.1767 299.19131,1041.6202 300.05661,1045.4929 300.71433,1048.4363 301.29067,1049.323 302.74141,1049.5856 303.40547,1049.7058 305.67837,1050.1662 307.778,1050.6153 309.87763,1051.0645 311.68153,1051.3334 311.79127,1051.2108 311.90096,1051.0881 313.26777,1051.2608 314.84294,1051.5977 318.33907,1052.3455 322.13504,1052.1447 327.59724,1050.9201 329.87496,1050.4095 332.86894,1049.768 334.25,1049.5013 340.60008,1048.275 343.85804,1045.1449 350.46566,1033.9225 352.71868,1030.0961 353.05704,1029.1546 353.22951,1025.9066 353.33702,1023.8827 353.54953,1019.9792 353.7127,1017.2316 354.33759,1006.7102 354.50842,992.37966 354.13405,981.56733 353.91993,975.38142 353.78341,968.78499 353.84171,966.90798 354.01765,961.24076 353.3869,931.08113 352.90471,922.14711 351.32884,909.42862 349.58356,907.72801 342.57761,901.11832 343.10298,897.64575 343.34395,894.06516 344.32238,890.68598 345.45962,886.87711 344.73268,873.67063 342.83816,863.74321 342.39313,861.41138 341.56205,858.71581 340.68181,856.78756 339.6185,854.45832 332.66496,842.47884 331.45942,840.88942 330.62233,839.78575 330.1798,838.57338 330.22342,837.51866 330.28471,836.03775 330.69698,835.64852 334.37575,833.55296 340.66169,829.97231 345.37832,824.17103 348.46211,816.2092 352.11234,808.41012 349.08951,793.72358 345.37481,788.1273 344.18922,786.424 344.16685,786.20537 344.61828,781.89626 345.19529,776.38904 344.45941,771.94127 342.70984,770.27515 341.97014,769.02549 338.34658,765.64194 338.30684,765.62305 337.79404,765.47357 336.88073,764.9557 336.2774,764.47489 335.67145,763.99199 334.13983,763.58819 332.85282,763.56824 330.63096,763.53378 330.42999,763.40166 328.62969,760.67505 326.45893,757.38745 323.04892,754.53186 319.4547,752.98017 317.32748,752.06181 316.36587,751.96044 312.93227,752.32794 310.71469,752.56529 308.20318,753.05486 307.35895,753.42455 306.51473,753.79422 304.78345,754.47032 303.51108,754.91642 302.23871,755.36253 300.73588,756.32112 300.174,757.05138 299.41523,758.03759 298.56137,758.44228 296.8541,758.61214 293.54239,758.94162 291.22705,759.66109 288.91606,761.06888 287.80081,761.74826 286.77789,762.43854 286.64297,762.60408 286.50806,762.76961 285.67685,763.45756 284.79626,764.14829 279.44172,767.66732 281.27023,776.2176 279.53136,778.1344 278.67843,779.06657 277.70364,779.84135 277.3835,779.85918 276.58526,779.90364 273.95985,783.16355 273.40004,784.79821 273.14843,785.5329 272.99082,788.37197 273.06346,791.10651 273.33094,798.891 271.77842,801.90928 275.58034,807.47639 278.34063,811.49387 278.35537,811.53435 278.61594,816.10288 278.81764,819.6396 278.67254,821.16835 277.97099,822.75593 277.24734,826.46064 277.55995,824.43815 275.35626,826.68513 274.58718,827.481 271.85415,829.32896 269.29623,830.80621 256.69749,836.89607 242.6031,837.75372 234.21627,837.64098 226.29935,837.15802 217.59167,837.48884 210.20386,834.68707 208.73071,834.1161 206.32565,833.28173 204.85964,832.83906 200.83594,831.69126 184.65883,824.13892 184.55683,819.14682 184.64281,817.75985 184.60882,817.77102 190.30224,816.14066 195.54011,813.77839 200.68497,811.01203 204.05972,808.18402 208.09158,804.86286 213.52892,797.68684 213.34201,791.92677 213.25732,790.2828 213.37086,787.98436 213.59802,786.81862 213.82517,785.65289 213.86954,782.43291 213.69045,779.65584 213.38093,774.85629 213.97858,771.135 215.21313,770.23497 217.21894,768.77266 218.83939,759.13484 217.66035,755.65236 217.2814,754.53301 216.89094,752.31785 216.79698,750.7376 216.58131,747.11062 215.36798,744.12228 213.53287,742.71349 211.69245,741.30062 211.33358,737.61907 212.78883,734.94212 214.25131,732.25189 213.83747,727.50252 211.74576,722.978 210.19215,719.61744 210.07402,718.91105 209.63774,711.3025 209.21841,703.9895 209.02928,702.90748 207.73845,700.1395 204.84213,694.76728 198.34251,689.43652 195.63732,688.13611 194.45476,687.56854 191.75343,685.56612 189.64051,683.68742 187.52758,681.80873 184.36367,679.43107 182.59854,678.41248 180.83342,677.3939 179.25797,676.42612 179.10484,676.26487 174.74773,672.98204 159.3866,669.60226 156.01753,671.98187 155.22623,672.86651 152.83681,672.48906 151.67133,671.29033 151.0046,670.60459 150.44458,669.85006 150.43194,669.62318 150.3882,668.838 146.275,665.64255 143.99508,664.62574 140.29475,662.10297 140.6517,662.39558 136.52081,662.1757 131.27399,661.8894 120.33341,662.70445 119.06762,663.47535 117.86475,664.20795 111.66008,663.67923 109.16062,662.63492 108.42745,662.32859 106.39961,662.29539 103.97357,662.43244 z M 175.11448,690.19638 C 179.02152,689.97877 182.36085,692.96574 182.57846,696.87279 182.79606,700.77984 179.80909,704.11916 175.90205,704.33677 171.995,704.55437 168.65567,701.5674 168.43807,697.66035 168.22046,693.7533 171.20743,690.41399 175.11448,690.19638 z"
       id="path3066"
       inkscape:connector-curvature="0"
       sodipodi:nodetypes="ssccccsccssssssssccccccccssssscccsssssccssccsccsccsccssssscccssccscsssssssssccccsscccssssccsscssccscsssscsscccccsccscccccsscssssssssccscccsccccccccccsssssssssccssccssccssssssss" />
  </g>
</svg>
